<svg width="850" height="883" viewBox="0 0 850 883" fill="none" xmlns="http://www.w3.org/2000/svg">
<path d="M45.4181 462.254C44.1461 417.161 43.7346 371.596 50.9177 327.352C54.2474 306.928 59.3354 286.551 69.1373 269.758C80.1739 250.891 96.3732 237.967 112.498 226.316C252.755 124.95 421.446 84.9511 580.297 122.733C637.088 136.224 693.655 160.185 738.961 205.373C784.267 250.608 817.115 319.663 816.329 392.539C815.918 430.557 806.677 467.49 797.249 503.621C784.716 551.639 771.697 599.516 758.228 647.156C751.232 671.873 743.787 697.202 729.795 716.589C716.851 734.513 699.192 745.928 681.122 754.135C626.463 778.946 566.529 776.87 508.765 769.229C451.001 761.493 393.2 748.569 335.211 752.814C264.652 757.956 194.505 793.144 123.534 788.285C99.2166 786.634 91.3974 769.512 82.9423 742.862C69.6985 700.976 61.206 656.873 55.6316 612.393C49.4586 562.677 46.8772 512.442 45.4181 462.254Z" fill="#2B83C5"/>
<path d="M533.083 155.421H302.625V270.702H533.083V155.421Z" fill="#2979AA"/>
<path d="M533.083 144.525H302.625V259.806H533.083V144.525Z" fill="#7AD6E2"/>
<path d="M521.036 144.525L446.587 259.806H458.82L533.382 144.525H521.036Z" fill="#B3FAFF"/>
<path d="M490.246 144.525L415.797 259.806H428.03L502.592 144.525H490.246Z" fill="#B3FAFF"/>
<path d="M411.12 144.525L336.708 259.806H348.904L423.466 144.525H411.12Z" fill="#B3FAFF"/>
<path d="M380.33 144.525L305.88 259.806H318.114L392.676 144.525H380.33Z" fill="#B3FAFF"/>
<path d="M418.49 144.525H414.375V259.806H418.49V144.525Z" fill="#2B83C5"/>
<path d="M343.704 288.438H281.712V315.843H343.704V288.438Z" fill="#2979AA"/>
<path d="M488.6 288.438H426.609V315.843H488.6V288.438Z" fill="#2979AA"/>
<path d="M365.178 337.257H303.187V364.662H365.178V337.257Z" fill="#2979AA"/>
<path d="M528.22 337.257H466.228V364.662H528.22V337.257Z" fill="#2979AA"/>
<path d="M729.272 268.862H667.28V296.267H729.272V268.862Z" fill="#2979AA"/>
<path d="M304.608 624.704H242.617V652.109H304.608V624.704Z" fill="#2979AA"/>
<path d="M449.467 624.704H387.476V652.109H449.467V624.704Z" fill="#2979AA"/>
<path d="M326.083 673.571H264.091V700.976H326.083V673.571Z" fill="#2979AA"/>
<path d="M123.572 501.593H61.5801V528.998H123.572V501.593Z" fill="#2979AA"/>
<path d="M150.209 611.025H88.2174V638.43H150.209V611.025Z" fill="#2979AA"/>
<path d="M489.124 673.571H427.132V700.976H489.124V673.571Z" fill="#2979AA"/>
<path d="M147.403 176.034H117.361V793.285H147.403V176.034Z" fill="#25698C"/>
<path d="M138.611 176.034H108.57V793.285H138.611V176.034Z" fill="#1D566D"/>
<path d="M128.697 176.034H98.6554V793.285H128.697V176.034Z" fill="#163F4C"/>
<path d="M121.926 176.034H91.8838V793.285H121.926V176.034Z" fill="#25698C"/>
<path d="M695.189 287.399H113.508V308.767H695.189V287.399Z" fill="#25698C"/>
<path d="M730.656 144.525H699.08V793.332H730.656V144.525Z" fill="#25698C"/>
<path d="M721.378 144.525H689.802V793.332H721.378V144.525Z" fill="#1D566D"/>
<path d="M710.977 144.525H679.401V793.332H710.977V144.525Z" fill="#163F4C"/>
<path d="M703.831 144.525H672.256V793.332H703.831V144.525Z" fill="#25698C"/>
<path d="M645.918 656.401H583.926V683.806H645.918V656.401Z" fill="#2979AA"/>
<path d="M437.907 815.077C647.4 815.077 817.227 797.042 817.227 774.795C817.227 752.548 647.4 734.513 437.907 734.513C228.415 734.513 58.5872 752.548 58.5872 774.795C58.5872 797.042 228.415 815.077 437.907 815.077Z" fill="#FF777F"/>
<path d="M114.705 769.323C113.508 772.153 112.872 775.833 114.294 778.474C115.416 780.55 117.474 781.399 119.344 782.106C154.324 794.936 191.325 794.747 227.727 794.464C249.725 794.276 271.761 794.087 293.759 793.945C348.867 793.521 403.974 793.049 459.045 791.351C487.89 790.455 516.772 789.229 545.616 790.266C618.644 792.861 693.019 809.7 763.84 787.153C769.265 785.408 775.999 780.738 774.54 773.946C774.016 771.446 772.408 769.559 770.836 767.861C764.888 761.54 758.228 756.21 751.158 752.107C709.555 745.645 650.744 740.55 581.756 737.532C527.284 736.683 472.775 736.305 418.266 736.73C371.912 737.107 325.559 738.05 279.243 739.843C261.884 740.503 247.069 745.267 230.308 748.003C217.064 750.173 191.138 746.163 166.932 746.588C157.317 747.626 148.264 748.711 139.771 749.843C128.286 753.05 119.082 758.899 114.705 769.323Z" fill="#CC4E5A"/>
<path d="M623.695 284.664C623.695 284.664 567.128 279.664 558.598 289.286C550.031 298.909 515.238 429.519 515.238 429.519L465.293 428.859L464.357 441.17L524.815 466.547L562.826 381.077L570.533 466.499C570.533 466.499 624.63 473.386 655.308 446.311L638.772 349.144L623.695 284.664Z" fill="#FEC83D"/>
<path d="M568.438 378.388C567.427 370.37 566.791 362.256 566.455 354.143C566.268 349.427 567.203 336.219 561.442 342.021C557.364 346.125 554.333 356.974 551.939 362.775C548.834 370.228 545.99 377.822 543.259 385.511C541.052 391.69 538.92 398.01 538.022 404.661C537.124 411.359 537.573 418.529 540.304 424.378C540.828 425.463 541.426 426.548 542.137 427.491L562.788 381.03L565.819 414.425C568.288 408.954 569.747 402.727 569.934 396.407C570.121 390.416 569.186 384.379 568.438 378.388Z" fill="#BF9330"/>
<path d="M601.809 301.928C609.74 297.73 616.662 291.173 623.732 284.947L623.658 284.711C623.658 284.711 567.091 279.711 558.561 289.334C557.177 290.89 555.119 295.607 552.612 302.447C554.333 303.72 556.466 304.522 558.374 305.041C572.815 308.579 588.229 309.05 601.809 301.928Z" fill="#BF9330"/>
<path d="M546.851 392.303C541.613 386.784 534.991 383.954 528.482 381.312C521.037 407.727 515.238 429.519 515.238 429.519L465.293 428.859L464.357 441.17L524.815 466.546L553.548 401.972C551.64 398.34 549.47 395.039 546.851 392.303Z" fill="#BF9330"/>
<path d="M526.125 749.607C524.03 750.974 521.598 753.522 522.496 756.257C532.298 757.248 542.212 756.163 551.939 754.371C555.418 753.71 559.01 752.908 561.853 750.408C573.376 740.22 559.047 733.333 551.004 735.55C542.623 737.909 533.719 744.701 526.125 749.607Z" fill="#2D3E51"/>
<path d="M646.778 753.71C644.683 755.078 642.251 757.625 643.149 760.361C652.951 761.352 662.865 760.267 672.592 758.474C676.072 757.814 679.663 757.012 682.507 754.512C694.03 744.324 679.701 737.437 671.657 739.654C663.277 742.013 654.373 748.758 646.778 753.71Z" fill="#2D3E51"/>
<path d="M582.056 455.462L537.61 631.684L547.375 739.371L563.986 740.833L568.475 628.383L617.597 472.301L629.419 478.48L636.34 628.383L663.726 747.531L682.544 742.295L668.964 619.656C668.964 619.656 669.936 485.839 655.233 446.405C640.643 406.878 582.056 455.462 582.056 455.462Z" fill="#7BA863"/>
<path d="M642.7 372.256C636.378 371.926 630.392 369.804 626.501 363.766C623.807 359.568 622.685 354.144 621.712 348.861C617.859 327.587 615.651 305.843 615.09 284.051C612.883 283.909 610.302 283.768 607.533 283.673C607.945 305.182 608.618 326.644 609.516 348.153C599.452 352.21 588.677 353.483 578.165 351.879C575.546 351.502 572.74 350.795 570.982 348.342C569.597 346.455 569.074 343.814 568.587 341.266C565.332 323.389 563.312 305.135 562.489 286.786C560.768 287.494 559.421 288.296 558.561 289.239C557.626 290.277 556.391 292.777 554.932 296.362C557.289 325.229 559.608 354.049 561.965 382.916L562.788 381.03L570.533 466.5C570.533 466.5 624.63 473.386 655.308 446.311L642.7 372.256Z" fill="#A4D38F"/>
<path d="M617.971 464C629.494 443.67 639.333 421.831 647.227 398.907L638.772 349.191L638.51 348.012C636.527 346.549 634.507 345.134 632.487 343.766C631.514 343.106 630.392 342.446 629.307 342.823C628.484 343.153 627.885 344.049 627.361 344.946C614.941 365.558 609.703 391.407 600.874 414.756C599.003 419.708 596.796 424.802 593.204 427.916C589.426 431.123 584.674 431.736 580.147 432.114C575.957 432.444 571.73 432.68 567.54 432.774L570.533 466.028C571.131 466.264 571.73 466.5 572.328 466.736C578.09 467.254 597.507 468.528 617.971 464Z" fill="#7BA863"/>
<path d="M591.147 254.9C590.099 250.702 587.48 247.401 584.151 246.08C576.032 242.825 561.367 240.514 558.374 263.815C558.149 265.419 558.224 267.07 558.561 268.674C560.132 276.032 565.594 298.013 575.172 297.588C583.702 297.164 584.113 294.994 583.776 293.862L587.779 301.362C587.779 301.362 599.04 298.909 599.564 288.013L591.147 254.9Z" fill="#EF7C2E"/>
<path d="M610.9 413.576H601.36V471.405H610.9V413.576Z" fill="#FFEECB"/>
<path d="M610.9 413.576H601.36V420.463C603.68 419.661 607.645 418.246 610.9 417.161V413.576Z" fill="#998055"/>
<path d="M606.523 440.415H606.074C596.871 440.415 589.388 449.849 589.388 461.452V563.29H623.209V461.452C623.209 449.849 615.726 440.415 606.523 440.415Z" fill="#FFEECB"/>
<path d="M612.135 405.888H599.564C598.33 405.888 597.32 407.161 597.32 408.718V412.491C597.32 414.048 598.33 415.321 599.564 415.321H612.135C613.369 415.321 614.379 414.048 614.379 412.491V408.718C614.379 407.161 613.369 405.888 612.135 405.888Z" fill="#FFEECB"/>
<path d="M623.732 483.15H589.388V508.716H623.732V483.15Z" fill="#8681BD"/>
<path d="M597.619 443.34C592.718 447.019 589.388 453.717 589.388 461.453V483.197H597.619V443.34Z" fill="#FFFBF3"/>
<path d="M597.619 508.716H589.388V563.29H597.619V508.716Z" fill="#FFFBF3"/>
<path d="M597.619 483.15H589.388V508.716H597.619V483.15Z" fill="#A2A0EA"/>
<path d="M623.209 508.716H614.379V563.29H623.209V508.716Z" fill="#998055"/>
<path d="M623.209 483.15V461.405C623.209 453.387 619.617 446.406 614.379 442.868V483.15H623.209Z" fill="#998055"/>
<path d="M623.209 483.15H614.379V508.716H623.209V483.15Z" fill="#525177"/>
<path d="M686.645 373.492L677.107 373.271L676.267 431.089L685.805 431.309L686.645 373.492Z" fill="#FFEECB"/>
<path d="M686.659 373.53L677.119 373.294L677.007 380.181C679.327 379.426 683.33 378.152 686.584 377.067L686.659 373.53Z" fill="#998055"/>
<path d="M681.908 400.228H681.459C672.256 399.992 664.661 409.237 664.474 420.887L662.978 522.678L696.761 523.48L698.257 421.689C698.444 410.039 691.111 400.463 681.908 400.228Z" fill="#FFEECB"/>
<path d="M688.006 365.841L675.436 365.558C674.201 365.511 673.154 366.785 673.154 368.341L673.116 372.115C673.079 373.671 674.089 374.992 675.323 374.992L687.894 375.275C689.129 375.322 690.176 374.049 690.176 372.492L690.213 368.719C690.251 367.162 689.241 365.841 688.006 365.841Z" fill="#FFEECB"/>
<path d="M698.455 443.347L664.118 442.553L663.746 468.114L698.084 468.907L698.455 443.347Z" fill="#8681BD"/>
<path d="M672.967 402.916C667.991 406.454 664.586 413.104 664.474 420.84L664.175 442.585L672.405 442.774L672.967 402.916Z" fill="#FFFBF3"/>
<path d="M663.777 468.112L662.984 522.675L671.213 522.865L672.006 468.302L663.777 468.112Z" fill="#FFFBF3"/>
<path d="M664.146 442.573L663.775 468.133L672.004 468.323L672.375 442.763L664.146 442.573Z" fill="#A2A0EA"/>
<path d="M688.742 468.722L687.949 523.285L696.776 523.489L697.569 468.925L688.742 468.722Z" fill="#998055"/>
<path d="M697.958 443.387L698.257 421.642C698.369 413.624 694.89 406.548 689.69 402.869L689.091 443.151L697.958 443.387Z" fill="#998055"/>
<path d="M689.111 443.183L688.74 468.744L697.567 468.948L697.938 443.387L689.111 443.183Z" fill="#525177"/>
<path d="M738.608 331.324L729.07 331.104L728.23 388.921L737.768 389.141L738.608 331.324Z" fill="#FFEECB"/>
<path d="M738.625 331.313L729.084 331.078L728.972 337.964C731.292 337.21 735.295 335.936 738.55 334.851L738.625 331.313Z" fill="#998055"/>
<path d="M733.873 358.058H733.424C724.221 357.822 716.626 367.067 716.439 378.718L714.943 480.508L748.726 481.31L750.222 379.52C750.409 367.822 743.077 358.247 733.873 358.058Z" fill="#FFEECB"/>
<path d="M739.971 323.625L727.401 323.342C726.166 323.295 725.119 324.568 725.119 326.125L725.081 329.899C725.044 331.455 726.054 332.776 727.289 332.776L739.859 333.059C741.094 333.106 742.141 331.832 742.141 330.276L742.179 326.502C742.179 324.946 741.206 323.672 739.971 323.625Z" fill="#FFEECB"/>
<path d="M750.418 401.179L716.081 400.386L715.709 425.946L750.047 426.739L750.418 401.179Z" fill="#8681BD"/>
<path d="M724.894 360.747C719.918 364.285 716.514 370.936 716.402 378.671L716.102 400.416L724.333 400.605L724.894 360.747Z" fill="#FFFBF3"/>
<path d="M715.716 425.965L714.923 480.529L723.152 480.719L723.945 426.155L715.716 425.965Z" fill="#FFFBF3"/>
<path d="M716.123 400.427L715.751 425.988L723.98 426.178L724.352 400.618L716.123 400.427Z" fill="#A2A0EA"/>
<path d="M740.719 426.529L739.926 481.092L748.753 481.296L749.546 426.733L740.719 426.529Z" fill="#998055"/>
<path d="M749.923 401.171L750.222 379.426C750.334 371.407 746.855 364.332 741.655 360.653L741.056 400.935L749.923 401.171Z" fill="#998055"/>
<path d="M741.088 400.99L740.717 426.551L749.544 426.755L749.916 401.194L741.088 400.99Z" fill="#525177"/>
<path d="M567.128 413.576H557.588V471.405H567.128V413.576Z" fill="#FFEECB"/>
<path d="M567.128 413.576H557.588V420.463C559.908 419.661 563.873 418.246 567.128 417.161V413.576Z" fill="#998055"/>
<path d="M562.751 440.415H562.302C553.099 440.415 545.616 449.849 545.616 461.452V563.29H579.437V461.452C579.437 449.849 571.992 440.415 562.751 440.415Z" fill="#FFEECB"/>
<path d="M568.363 405.888H555.792C554.558 405.888 553.547 407.161 553.547 408.718V412.491C553.547 414.048 554.558 415.321 555.792 415.321H568.363C569.597 415.321 570.607 414.048 570.607 412.491V408.718C570.607 407.161 569.597 405.888 568.363 405.888Z" fill="#FFEECB"/>
<path d="M579.998 483.15H545.654V508.716H579.998V483.15Z" fill="#8681BD"/>
<path d="M553.847 443.34C548.946 447.019 545.616 453.717 545.616 461.453V483.197H553.847V443.34Z" fill="#FFFBF3"/>
<path d="M553.884 508.716H545.654V563.29H553.884V508.716Z" fill="#FFFBF3"/>
<path d="M553.884 483.15H545.654V508.716H553.884V483.15Z" fill="#A2A0EA"/>
<path d="M579.437 508.716H570.607V563.29H579.437V508.716Z" fill="#998055"/>
<path d="M579.437 483.15V461.405C579.437 453.387 575.845 446.406 570.607 442.868V483.15H579.437Z" fill="#998055"/>
<path d="M579.437 483.15H570.607V508.716H579.437V483.15Z" fill="#525177"/>
<path d="M523.393 413.576H513.853V471.405H523.393V413.576Z" fill="#FFEECB"/>
<path d="M523.393 413.576H513.853V420.463C516.173 419.661 520.139 418.246 523.393 417.161V413.576Z" fill="#998055"/>
<path d="M519.016 440.415H518.567C509.364 440.415 501.882 449.849 501.882 461.452V563.29H535.702V461.452C535.702 449.849 528.22 440.415 519.016 440.415Z" fill="#FFEECB"/>
<path d="M524.628 405.888H512.058C510.823 405.888 509.813 407.161 509.813 408.718V412.491C509.813 414.048 510.823 415.321 512.058 415.321H524.628C525.863 415.321 526.873 414.048 526.873 412.491V408.718C526.873 407.161 525.863 405.888 524.628 405.888Z" fill="#FFEECB"/>
<path d="M536.226 483.15H501.882V508.716H536.226V483.15Z" fill="#8681BD"/>
<path d="M510.112 443.34C505.211 447.019 501.882 453.717 501.882 461.453V483.197H510.112V443.34Z" fill="#FFFBF3"/>
<path d="M510.112 508.716H501.882V563.29H510.112V508.716Z" fill="#FFFBF3"/>
<path d="M510.112 483.15H501.882V508.716H510.112V483.15Z" fill="#A2A0EA"/>
<path d="M535.702 508.716H526.873V563.29H535.702V508.716Z" fill="#998055"/>
<path d="M535.702 483.15V461.405C535.702 453.387 532.11 446.406 526.873 442.868V483.15H535.702Z" fill="#998055"/>
<path d="M535.702 483.15H526.873V508.716H535.702V483.15Z" fill="#525177"/>
<path d="M479.621 413.576H470.081V471.405H479.621V413.576Z" fill="#FFEECB"/>
<path d="M479.621 413.576H470.081V420.463C472.401 419.661 476.367 418.246 479.621 417.161V413.576Z" fill="#998055"/>
<path d="M475.244 440.415H474.795C465.592 440.415 458.11 449.849 458.11 461.452V563.29H491.93V461.452C491.93 449.849 484.485 440.415 475.244 440.415Z" fill="#FFEECB"/>
<path d="M480.856 405.888H468.286C467.051 405.888 466.041 407.161 466.041 408.718V412.491C466.041 414.048 467.051 415.321 468.286 415.321H480.856C482.091 415.321 483.101 414.048 483.101 412.491V408.718C483.101 407.161 482.091 405.888 480.856 405.888Z" fill="#FFEECB"/>
<path d="M492.491 483.15H458.147V508.716H492.491V483.15Z" fill="#8681BD"/>
<path d="M466.34 443.34C461.439 447.019 458.11 453.717 458.11 461.453V483.197H466.34V443.34Z" fill="#FFFBF3"/>
<path d="M466.378 508.716H458.147V563.29H466.378V508.716Z" fill="#FFFBF3"/>
<path d="M466.378 483.15H458.147V508.716H466.378V483.15Z" fill="#A2A0EA"/>
<path d="M491.93 508.716H483.101V563.29H491.93V508.716Z" fill="#998055"/>
<path d="M491.93 483.15V461.405C491.93 453.387 488.339 446.406 483.101 442.868V483.15H491.93Z" fill="#998055"/>
<path d="M491.93 483.15H483.101V508.716H491.93V483.15Z" fill="#525177"/>
<path d="M435.887 413.576H426.347V471.405H435.887V413.576Z" fill="#FFEECB"/>
<path d="M435.887 413.576H426.347V420.463C428.666 419.661 432.632 418.246 435.887 417.161V413.576Z" fill="#998055"/>
<path d="M431.51 440.415H431.061C421.857 440.415 414.375 449.849 414.375 461.452V563.29H448.195V461.452C448.195 449.849 440.713 440.415 431.51 440.415Z" fill="#FFEECB"/>
<path d="M437.122 405.888H424.551C423.317 405.888 422.306 407.161 422.306 408.718V412.491C422.306 414.048 423.317 415.321 424.551 415.321H437.122C438.356 415.321 439.366 414.048 439.366 412.491V408.718C439.366 407.161 438.356 405.888 437.122 405.888Z" fill="#FFEECB"/>
<path d="M448.719 483.15H414.375V508.716H448.719V483.15Z" fill="#8681BD"/>
<path d="M422.606 443.34C417.705 447.019 414.375 453.717 414.375 461.453V483.197H422.606V443.34Z" fill="#FFFBF3"/>
<path d="M422.606 508.716H414.375V563.29H422.606V508.716Z" fill="#FFFBF3"/>
<path d="M422.606 483.15H414.375V508.716H422.606V483.15Z" fill="#A2A0EA"/>
<path d="M448.195 508.716H439.366V563.29H448.195V508.716Z" fill="#998055"/>
<path d="M448.195 483.15V461.405C448.195 453.387 444.604 446.406 439.366 442.868V483.15H448.195Z" fill="#998055"/>
<path d="M448.195 483.15H439.366V508.716H448.195V483.15Z" fill="#525177"/>
<path d="M392.115 413.576H382.575V471.405H392.115V413.576Z" fill="#FFEECB"/>
<path d="M392.115 413.576H382.575V420.463C384.894 419.661 388.86 418.246 392.115 417.161V413.576Z" fill="#998055"/>
<path d="M387.775 440.415H387.326C378.123 440.415 370.64 449.849 370.64 461.452V563.29H404.461V461.452C404.423 449.849 396.978 440.415 387.775 440.415Z" fill="#FFEECB"/>
<path d="M393.349 405.888H380.779C379.544 405.888 378.534 407.161 378.534 408.718V412.491C378.534 414.048 379.544 415.321 380.779 415.321H393.349C394.584 415.321 395.594 414.048 395.594 412.491V408.718C395.594 407.161 394.621 405.888 393.349 405.888Z" fill="#FFEECB"/>
<path d="M404.985 483.15H370.64V508.716H404.985V483.15Z" fill="#8681BD"/>
<path d="M378.834 443.34C373.933 447.019 370.603 453.717 370.603 461.453V483.197H378.834V443.34Z" fill="#FFFBF3"/>
<path d="M378.871 508.716H370.64V563.29H378.871V508.716Z" fill="#FFFBF3"/>
<path d="M378.871 483.15H370.64V508.716H378.871V483.15Z" fill="#A2A0EA"/>
<path d="M404.423 508.716H395.594V563.29H404.423V508.716Z" fill="#998055"/>
<path d="M404.423 483.15V461.405C404.423 453.387 400.832 446.406 395.594 442.868V483.15H404.423Z" fill="#998055"/>
<path d="M404.423 483.15H395.594V508.716H404.423V483.15Z" fill="#525177"/>
<path d="M348.38 413.576H338.84V471.405H348.38V413.576Z" fill="#FFEECB"/>
<path d="M348.38 413.576H338.84V420.463C341.16 419.661 345.125 418.246 348.38 417.161V413.576Z" fill="#998055"/>
<path d="M344.003 440.415H343.554C334.351 440.415 326.868 449.849 326.868 461.452V563.29H360.689V461.452C360.689 449.849 353.206 440.415 344.003 440.415Z" fill="#FFEECB"/>
<path d="M349.615 405.888H337.044C335.81 405.888 334.8 407.161 334.8 408.718V412.491C334.8 414.048 335.81 415.321 337.044 415.321H349.615C350.849 415.321 351.86 414.048 351.86 412.491V408.718C351.86 407.161 350.849 405.888 349.615 405.888Z" fill="#FFEECB"/>
<path d="M361.213 483.15H326.868V508.716H361.213V483.15Z" fill="#8681BD"/>
<path d="M335.099 443.34C330.198 447.019 326.868 453.717 326.868 461.453V483.197H335.099V443.34Z" fill="#FFFBF3"/>
<path d="M335.099 508.716H326.868V563.29H335.099V508.716Z" fill="#FFFBF3"/>
<path d="M335.099 483.15H326.868V508.716H335.099V483.15Z" fill="#A2A0EA"/>
<path d="M360.689 508.716H351.86V563.29H360.689V508.716Z" fill="#998055"/>
<path d="M360.689 483.15V461.405C360.689 453.387 357.097 446.406 351.86 442.868V483.15H360.689Z" fill="#998055"/>
<path d="M360.689 483.15H351.86V508.716H360.689V483.15Z" fill="#525177"/>
<path d="M304.608 413.576H295.068V471.405H304.608V413.576Z" fill="#FFEECB"/>
<path d="M304.608 413.576H295.068V420.463C297.388 419.661 301.353 418.246 304.608 417.161V413.576Z" fill="#998055"/>
<path d="M300.268 440.415H299.819C290.616 440.415 283.134 449.849 283.134 461.452V563.29H316.954V461.452C316.917 449.849 309.472 440.415 300.268 440.415Z" fill="#FFEECB"/>
<path d="M305.843 405.888H293.31C292.075 405.888 291.065 407.161 291.065 408.718V412.491C291.065 414.048 292.075 415.321 293.31 415.321H305.88C307.115 415.321 308.125 414.048 308.125 412.491V408.718C308.125 407.161 307.115 405.888 305.843 405.888Z" fill="#FFEECB"/>
<path d="M317.478 483.15H283.134V508.716H317.478V483.15Z" fill="#8681BD"/>
<path d="M291.327 443.34C286.426 447.019 283.096 453.717 283.096 461.453V483.197H291.327V443.34Z" fill="#FFFBF3"/>
<path d="M291.364 508.716H283.134V563.29H291.364V508.716Z" fill="#FFFBF3"/>
<path d="M291.364 483.15H283.134V508.716H291.364V483.15Z" fill="#A2A0EA"/>
<path d="M316.954 508.716H308.125V563.29H316.954V508.716Z" fill="#998055"/>
<path d="M316.917 483.15V461.405C316.917 453.387 313.325 446.406 308.088 442.868V483.15H316.917Z" fill="#998055"/>
<path d="M316.954 483.15H308.125V508.716H316.954V483.15Z" fill="#525177"/>
<path d="M260.874 413.576H251.334V471.405H260.874V413.576Z" fill="#FFEECB"/>
<path d="M260.874 413.576H251.334V420.463C253.653 419.661 257.619 418.246 260.874 417.161V413.576Z" fill="#998055"/>
<path d="M256.496 440.415H256.048C246.844 440.415 239.362 449.849 239.362 461.452V563.29H273.182V461.452C273.182 449.849 265.7 440.415 256.496 440.415Z" fill="#FFEECB"/>
<path d="M262.108 405.888H249.538C248.303 405.888 247.293 407.161 247.293 408.718V412.491C247.293 414.048 248.303 415.321 249.538 415.321H262.108C263.343 415.321 264.353 414.048 264.353 412.491V408.718C264.353 407.161 263.343 405.888 262.108 405.888Z" fill="#FFEECB"/>
<path d="M273.706 483.15H239.362V508.716H273.706V483.15Z" fill="#8681BD"/>
<path d="M247.592 443.34C242.691 447.019 239.362 453.717 239.362 461.453V483.197H247.592V443.34Z" fill="#FFFBF3"/>
<path d="M247.592 508.716H239.362V563.29H247.592V508.716Z" fill="#FFFBF3"/>
<path d="M247.592 483.15H239.362V508.716H247.592V483.15Z" fill="#A2A0EA"/>
<path d="M273.182 508.716H264.353V563.29H273.182V508.716Z" fill="#998055"/>
<path d="M273.182 483.15V461.405C273.182 453.387 269.591 446.406 264.353 442.868V483.15H273.182Z" fill="#998055"/>
<path d="M273.182 483.15H264.353V508.716H273.182V483.15Z" fill="#525177"/>
<path d="M217.102 413.576H207.562V471.405H217.102V413.576Z" fill="#FFEECB"/>
<path d="M217.102 413.576H207.562V420.463C209.881 419.661 213.847 418.246 217.102 417.161V413.576Z" fill="#998055"/>
<path d="M212.762 440.415H212.313C203.11 440.415 195.627 449.849 195.627 461.452V563.29H229.448V461.452C229.41 449.849 221.965 440.415 212.762 440.415Z" fill="#FFEECB"/>
<path d="M218.336 405.888H205.766C204.531 405.888 203.521 407.161 203.521 408.718V412.491C203.521 414.048 204.531 415.321 205.766 415.321H218.336C219.571 415.321 220.581 414.048 220.581 412.491V408.718C220.618 407.161 219.608 405.888 218.336 405.888Z" fill="#FFEECB"/>
<path d="M229.971 483.15H195.627V508.716H229.971V483.15Z" fill="#8681BD"/>
<path d="M203.858 443.34C198.957 447.019 195.627 453.717 195.627 461.453V483.197H203.858V443.34Z" fill="#FFFBF3"/>
<path d="M203.858 508.716H195.627V563.29H203.858V508.716Z" fill="#FFFBF3"/>
<path d="M203.858 483.15H195.627V508.716H203.858V483.15Z" fill="#A2A0EA"/>
<path d="M229.448 508.716H220.618V563.29H229.448V508.716Z" fill="#998055"/>
<path d="M229.41 483.15V461.405C229.41 453.387 225.819 446.406 220.581 442.868V483.15H229.41Z" fill="#998055"/>
<path d="M229.448 483.15H220.618V508.716H229.448V483.15Z" fill="#525177"/>
<path d="M173.367 413.576H163.827V471.405H173.367V413.576Z" fill="#FFEECB"/>
<path d="M173.367 413.576H163.827V420.463C166.146 419.661 170.112 418.246 173.367 417.161V413.576Z" fill="#998055"/>
<path d="M168.99 440.415H168.541C159.337 440.415 151.855 449.849 151.855 461.452V563.29H185.676V461.452C185.676 449.849 178.193 440.415 168.99 440.415Z" fill="#FFEECB"/>
<path d="M174.602 405.888H162.031C160.797 405.888 159.786 407.161 159.786 408.718V412.491C159.786 414.048 160.797 415.321 162.031 415.321H174.602C175.836 415.321 176.846 414.048 176.846 412.491V408.718C176.846 407.161 175.836 405.888 174.602 405.888Z" fill="#FFEECB"/>
<path d="M186.199 483.15H151.855V508.716H186.199V483.15Z" fill="#8681BD"/>
<path d="M160.086 443.34C155.185 447.019 151.855 453.717 151.855 461.453V483.197H160.086V443.34Z" fill="#FFFBF3"/>
<path d="M160.086 508.716H151.855V563.29H160.086V508.716Z" fill="#FFFBF3"/>
<path d="M160.086 483.15H151.855V508.716H160.086V483.15Z" fill="#A2A0EA"/>
<path d="M185.676 508.716H176.846V563.29H185.676V508.716Z" fill="#998055"/>
<path d="M185.676 483.15V461.405C185.676 453.387 182.084 446.406 176.846 442.868V483.15H185.676Z" fill="#998055"/>
<path d="M185.676 483.15H176.846V508.716H185.676V483.15Z" fill="#525177"/>
<path d="M154.661 778.899C168.525 778.899 179.764 776.47 179.764 773.474C179.764 770.478 168.525 768.05 154.661 768.05C140.797 768.05 129.558 770.478 129.558 773.474C129.558 776.47 140.797 778.899 154.661 778.899Z" fill="#4DA8BB"/>
<path d="M177.445 771.163C173.442 773.002 164.762 774.323 154.661 774.323C144.56 774.323 135.843 773.05 131.877 771.163C130.381 771.87 129.558 772.625 129.558 773.427C129.558 776.446 140.819 778.851 154.661 778.851C168.503 778.851 179.764 776.399 179.764 773.427C179.764 772.625 178.941 771.87 177.445 771.163Z" fill="#5BD8E8"/>
<path d="M149.386 566.686V767.578C149.386 770.786 151.481 773.427 154.025 773.427C156.569 773.427 158.664 770.786 158.664 767.578V566.686H149.386Z" fill="#4DA8BB"/>
<path d="M633.647 778.899C647.511 778.899 658.75 776.47 658.75 773.474C658.75 770.478 647.511 768.05 633.647 768.05C619.782 768.05 608.543 770.478 608.543 773.474C608.543 776.47 619.782 778.899 633.647 778.899Z" fill="#4DA8BB"/>
<path d="M656.43 771.163C652.427 773.002 643.748 774.323 633.647 774.323C623.545 774.323 614.828 773.05 610.863 771.163C609.366 771.87 608.543 772.625 608.543 773.427C608.543 776.446 619.804 778.851 633.647 778.851C647.526 778.851 658.75 776.399 658.75 773.427C658.75 772.625 657.927 771.87 656.43 771.163Z" fill="#5BD8E8"/>
<path d="M628.371 566.686V767.578C628.371 770.786 630.466 773.427 633.01 773.427C635.555 773.427 637.65 770.786 637.65 767.578V566.686H628.371Z" fill="#4DA8BB"/>
<path d="M743.226 778.899C757.09 778.899 768.33 776.47 768.33 773.474C768.33 770.478 757.09 768.05 743.226 768.05C729.362 768.05 718.123 770.478 718.123 773.474C718.123 776.47 729.362 778.899 743.226 778.899Z" fill="#4DA8BB"/>
<path d="M766.047 771.163C762.044 773.002 753.365 774.323 743.264 774.323C733.162 774.323 724.445 773.05 720.48 771.163C718.983 771.87 718.16 772.625 718.16 773.427C718.16 776.446 729.421 778.851 743.264 778.851C757.106 778.851 768.367 776.399 768.367 773.427C768.367 772.625 767.507 771.87 766.047 771.163Z" fill="#5BD8E8"/>
<path d="M737.951 475.98V767.625C737.951 770.833 740.046 773.474 742.59 773.474C745.134 773.474 747.229 770.833 747.229 767.625V475.98H737.951Z" fill="#4DA8BB"/>
<path d="M228.624 768.003C241.786 768.003 252.456 765.701 252.456 762.861C252.456 760.022 241.786 757.72 228.624 757.72C215.463 757.72 204.793 760.022 204.793 762.861C204.793 765.701 215.463 768.003 228.624 768.003Z" fill="#30757A"/>
<path d="M250.249 760.692C246.47 762.437 238.202 763.663 228.624 763.663C219.047 763.663 210.779 762.437 207 760.692C205.579 761.352 204.793 762.107 204.793 762.861C204.793 765.692 215.455 768.003 228.624 768.003C241.794 768.003 252.456 765.692 252.456 762.861C252.456 762.107 251.67 761.352 250.249 760.692Z" fill="#449C9E"/>
<path d="M223.611 566.686V757.295C223.611 760.361 225.594 762.861 228.026 762.861C230.458 762.861 232.441 760.361 232.441 757.295V566.686H223.611Z" fill="#30757A"/>
<path d="M365.29 768.003C378.452 768.003 389.122 765.701 389.122 762.861C389.122 760.022 378.452 757.72 365.29 757.72C352.129 757.72 341.459 760.022 341.459 762.861C341.459 765.701 352.129 768.003 365.29 768.003Z" fill="#30757A"/>
<path d="M386.915 760.692C383.136 762.437 374.868 763.663 365.29 763.663C355.713 763.663 347.445 762.437 343.666 760.692C342.245 761.352 341.459 762.107 341.459 762.861C341.459 765.692 352.121 768.003 365.29 768.003C378.459 768.003 389.122 765.692 389.122 762.861C389.122 762.107 388.336 761.352 386.915 760.692Z" fill="#449C9E"/>
<path d="M360.277 566.686V757.295C360.277 760.361 362.26 762.861 364.692 762.861C367.124 762.861 369.106 760.361 369.106 757.295V566.686H360.277Z" fill="#30757A"/>
<path d="M525.376 768.003C538.538 768.003 549.208 765.701 549.208 762.861C549.208 760.022 538.538 757.72 525.376 757.72C512.215 757.72 501.545 760.022 501.545 762.861C501.545 765.701 512.215 768.003 525.376 768.003Z" fill="#30757A"/>
<path d="M547 760.692C543.222 762.437 534.954 763.663 525.376 763.663C515.799 763.663 507.531 762.437 503.752 760.692C502.331 761.352 501.545 762.107 501.545 762.861C501.545 765.692 512.207 768.003 525.376 768.003C538.545 768.003 549.208 765.692 549.208 762.861C549.208 762.107 548.422 761.352 547 760.692Z" fill="#449C9E"/>
<path d="M520.363 566.686V757.295C520.363 760.361 522.346 762.861 524.778 762.861C527.21 762.861 529.192 760.361 529.192 757.295V566.686H520.363Z" fill="#30757A"/>
<path d="M689.69 768.002C702.851 768.002 713.521 765.701 713.521 762.861C713.521 760.022 702.851 757.72 689.69 757.72C676.528 757.72 665.858 760.022 665.858 762.861C665.858 765.701 676.528 768.002 689.69 768.002Z" fill="#30757A"/>
<path d="M711.314 760.691C707.535 762.437 699.267 763.663 689.69 763.663C680.112 763.663 671.844 762.437 668.065 760.691C666.644 761.352 665.858 762.107 665.858 762.861C665.858 765.691 676.521 768.003 689.69 768.003C702.859 768.003 713.521 765.691 713.521 762.861C713.521 762.107 712.735 761.352 711.314 760.691Z" fill="#449C9E"/>
<path d="M684.714 507.961V757.154C684.714 760.22 686.622 762.814 689.016 762.861C691.485 762.908 693.506 760.408 693.506 757.295V507.914H684.714V507.961Z" fill="#30757A"/>
<path d="M156.195 572.677C163.943 572.677 170.224 567.144 170.224 560.318C170.224 553.493 163.943 547.96 156.195 547.96C148.447 547.96 142.165 553.493 142.165 560.318C142.165 567.144 148.447 572.677 156.195 572.677Z" fill="#6E69B0"/>
<path d="M178.717 572.677C186.465 572.677 192.746 567.144 192.746 560.318C192.746 553.493 186.465 547.96 178.717 547.96C170.969 547.96 164.688 553.493 164.688 560.318C164.688 567.144 170.969 572.677 178.717 572.677Z" fill="#6E69B0"/>
<path d="M201.239 572.677C208.987 572.677 215.268 567.144 215.268 560.318C215.268 553.493 208.987 547.96 201.239 547.96C193.491 547.96 187.209 553.493 187.209 560.318C187.209 567.144 193.491 572.677 201.239 572.677Z" fill="#6E69B0"/>
<path d="M223.761 572.677C231.509 572.677 237.79 567.144 237.79 560.318C237.79 553.493 231.509 547.96 223.761 547.96C216.013 547.96 209.731 553.493 209.731 560.318C209.731 567.144 216.013 572.677 223.761 572.677Z" fill="#6E69B0"/>
<path d="M246.246 572.677C253.994 572.677 260.275 567.144 260.275 560.318C260.275 553.493 253.994 547.96 246.246 547.96C238.497 547.96 232.216 553.493 232.216 560.318C232.216 567.144 238.497 572.677 246.246 572.677Z" fill="#6E69B0"/>
<path d="M268.768 572.677C276.516 572.677 282.797 567.144 282.797 560.318C282.797 553.493 276.516 547.96 268.768 547.96C261.019 547.96 254.738 553.493 254.738 560.318C254.738 567.144 261.019 572.677 268.768 572.677Z" fill="#6E69B0"/>
<path d="M291.29 572.677C299.038 572.677 305.319 567.144 305.319 560.318C305.319 553.493 299.038 547.96 291.29 547.96C283.541 547.96 277.26 553.493 277.26 560.318C277.26 567.144 283.541 572.677 291.29 572.677Z" fill="#6E69B0"/>
<path d="M313.774 572.677C321.522 572.677 327.804 567.144 327.804 560.318C327.804 553.493 321.522 547.96 313.774 547.96C306.026 547.96 299.745 553.493 299.745 560.318C299.745 567.144 306.026 572.677 313.774 572.677Z" fill="#6E69B0"/>
<path d="M336.296 572.677C344.044 572.677 350.326 567.144 350.326 560.318C350.326 553.493 344.044 547.96 336.296 547.96C328.548 547.96 322.267 553.493 322.267 560.318C322.267 567.144 328.548 572.677 336.296 572.677Z" fill="#6E69B0"/>
<path d="M358.818 572.677C366.566 572.677 372.848 567.144 372.848 560.318C372.848 553.493 366.566 547.96 358.818 547.96C351.07 547.96 344.789 553.493 344.789 560.318C344.789 567.144 351.07 572.677 358.818 572.677Z" fill="#6E69B0"/>
<path d="M381.34 572.677C389.088 572.677 395.37 567.144 395.37 560.318C395.37 553.493 389.088 547.96 381.34 547.96C373.592 547.96 367.311 553.493 367.311 560.318C367.311 567.144 373.592 572.677 381.34 572.677Z" fill="#6E69B0"/>
<path d="M403.825 572.677C411.573 572.677 417.854 567.144 417.854 560.318C417.854 553.493 411.573 547.96 403.825 547.96C396.077 547.96 389.795 553.493 389.795 560.318C389.795 567.144 396.077 572.677 403.825 572.677Z" fill="#6E69B0"/>
<path d="M426.347 572.677C434.095 572.677 440.376 567.144 440.376 560.318C440.376 553.493 434.095 547.96 426.347 547.96C418.598 547.96 412.317 553.493 412.317 560.318C412.317 567.144 418.598 572.677 426.347 572.677Z" fill="#6E69B0"/>
<path d="M448.869 572.677C456.617 572.677 462.898 567.144 462.898 560.318C462.898 553.493 456.617 547.96 448.869 547.96C441.121 547.96 434.839 553.493 434.839 560.318C434.839 567.144 441.121 572.677 448.869 572.677Z" fill="#6E69B0"/>
<path d="M471.353 572.677C479.102 572.677 485.383 567.144 485.383 560.318C485.383 553.493 479.102 547.96 471.353 547.96C463.605 547.96 457.324 553.493 457.324 560.318C457.324 567.144 463.605 572.677 471.353 572.677Z" fill="#6E69B0"/>
<path d="M493.875 572.677C501.624 572.677 507.905 567.144 507.905 560.318C507.905 553.493 501.624 547.96 493.875 547.96C486.127 547.96 479.846 553.493 479.846 560.318C479.846 567.144 486.127 572.677 493.875 572.677Z" fill="#6E69B0"/>
<path d="M516.397 572.677C524.146 572.677 530.427 567.144 530.427 560.318C530.427 553.493 524.146 547.96 516.397 547.96C508.649 547.96 502.368 553.493 502.368 560.318C502.368 567.144 508.649 572.677 516.397 572.677Z" fill="#6E69B0"/>
<path d="M538.919 572.677C546.668 572.677 552.949 567.144 552.949 560.318C552.949 553.493 546.668 547.96 538.919 547.96C531.171 547.96 524.89 553.493 524.89 560.318C524.89 567.144 531.171 572.677 538.919 572.677Z" fill="#6E69B0"/>
<path d="M561.404 572.677C569.152 572.677 575.433 567.144 575.433 560.318C575.433 553.493 569.152 547.96 561.404 547.96C553.656 547.96 547.375 553.493 547.375 560.318C547.375 567.144 553.656 572.677 561.404 572.677Z" fill="#6E69B0"/>
<path d="M583.926 572.677C591.674 572.677 597.956 567.144 597.956 560.318C597.956 553.493 591.674 547.96 583.926 547.96C576.178 547.96 569.897 553.493 569.897 560.318C569.897 567.144 576.178 572.677 583.926 572.677Z" fill="#6E69B0"/>
<path d="M606.448 572.677C614.196 572.677 620.478 567.144 620.478 560.318C620.478 553.493 614.196 547.96 606.448 547.96C598.7 547.96 592.419 553.493 592.419 560.318C592.419 567.144 598.7 572.677 606.448 572.677Z" fill="#6E69B0"/>
<path d="M628.933 572.677C636.681 572.677 642.962 567.144 642.962 560.318C642.962 553.493 636.681 547.96 628.933 547.96C621.184 547.96 614.903 553.493 614.903 560.318C614.903 567.144 621.184 572.677 628.933 572.677Z" fill="#6E69B0"/>
<path d="M627.698 555.554H139.135C134.309 555.554 130.418 560.46 130.418 566.545C130.418 572.63 134.309 577.535 139.135 577.535H627.698C632.524 577.535 636.415 572.63 636.415 566.545C636.415 560.46 632.487 555.554 627.698 555.554Z" fill="#2D3E51"/>
<path d="M655.008 557.748C661.807 553.064 665.214 544.412 662.619 538.423C660.023 532.433 652.407 531.375 645.608 536.06C638.809 540.744 635.401 549.396 637.997 555.386C640.593 561.375 648.209 562.433 655.008 557.748Z" fill="#6E69B0"/>
<path d="M673.71 541.947C680.509 537.263 683.917 528.61 681.321 522.621C678.725 516.632 671.109 515.574 664.31 520.258C657.511 524.942 654.103 533.595 656.699 539.584C659.295 545.573 666.911 546.631 673.71 541.947Z" fill="#6E69B0"/>
<path d="M692.412 526.145C699.212 521.461 702.619 512.809 700.023 506.82C697.428 500.83 689.812 499.772 683.012 504.457C676.213 509.141 672.806 517.793 675.402 523.783C677.997 529.772 685.613 530.83 692.412 526.145Z" fill="#6E69B0"/>
<path d="M711.115 510.344C717.914 505.66 721.321 497.007 718.726 491.018C716.13 485.029 708.514 483.971 701.715 488.655C694.916 493.34 691.508 501.992 694.104 507.981C696.7 513.971 704.316 515.028 711.115 510.344Z" fill="#6E69B0"/>
<path d="M729.817 494.543C736.616 489.858 740.024 481.206 737.428 475.217C734.832 469.228 727.216 468.17 720.417 472.854C713.618 477.538 710.21 486.191 712.806 492.18C715.402 498.169 723.018 499.227 729.817 494.543Z" fill="#6E69B0"/>
<path d="M748.537 478.783C755.336 474.098 758.744 465.446 756.148 459.457C753.552 453.468 745.936 452.41 739.137 457.094C732.338 461.778 728.931 470.431 731.526 476.42C734.122 482.409 741.738 483.467 748.537 478.783Z" fill="#6E69B0"/>
<path d="M767.207 463.004C774.006 458.32 777.413 449.667 774.818 443.678C772.222 437.689 764.606 436.631 757.807 441.315C751.008 445.999 747.6 454.652 750.196 460.641C752.792 466.63 760.408 467.688 767.207 463.004Z" fill="#6E69B0"/>
<path d="M785.909 447.202C792.708 442.518 796.116 433.866 793.52 427.876C790.924 421.887 783.308 420.829 776.509 425.514C769.71 430.198 766.302 438.85 768.898 444.839C771.494 450.829 779.11 451.886 785.909 447.202Z" fill="#6E69B0"/>
<path d="M810.643 423.199C807.799 417.774 802.038 416.312 797.773 419.85L630.167 559.234C625.865 562.818 624.705 570.082 627.511 575.46C630.354 580.884 636.116 582.346 640.381 578.809L807.986 439.425C812.289 435.887 813.448 428.623 810.643 423.199Z" fill="#2D3E51"/>
<path d="M634.993 573.667C638.051 573.667 640.53 570.542 640.53 566.686C640.53 562.831 638.051 559.705 634.993 559.705C631.935 559.705 629.456 562.831 629.456 566.686C629.456 570.542 631.935 573.667 634.993 573.667Z" fill="#6E69B0"/>
<path d="M219.533 288.202L252.83 437.727L295.068 420.463L298.061 437.255L239.175 478.764L187.135 339.38C187.135 339.38 191.998 289.994 219.533 288.202Z" fill="#BF9330"/>
<path d="M331.694 417.35C331.545 416.5 331.433 415.557 331.732 414.802C332.143 413.812 333.079 413.34 333.977 413.387C336.446 413.482 338.129 416.595 339.177 419.425C340.224 422.255 341.347 425.51 343.704 426.547C344.115 426.736 344.527 426.83 344.938 426.689C345.649 426.406 346.023 425.415 346.248 424.519C346.809 422.255 347.071 419.849 346.996 417.444C346.959 415.982 346.772 414.519 346.996 413.104C347.258 411.689 348.081 410.274 349.203 410.133C350.475 409.944 351.598 411.312 351.934 412.868C352.308 414.378 352.084 416.029 351.86 417.585C351.373 421.217 350.999 424.991 351.485 428.623C352.047 432.727 353.693 436.5 354.029 440.604C354.366 444.707 352.72 449.707 349.465 450.226C348.305 450.415 347.071 449.99 345.948 450.415C345.425 450.604 344.938 450.934 344.415 450.887C343.517 450.792 342.993 449.66 342.694 448.575C341.272 443.198 342.619 436.83 340.599 431.595C338.429 425.793 332.966 424 331.694 417.35Z" fill="#EC5946"/>
<path d="M122 762.012C117.885 759.606 110.216 757.72 110.216 757.72L106.961 776.068C106.437 778.899 108.121 781.634 110.44 781.776L144.747 783.427C135.394 763.899 122 762.012 122 762.012Z" fill="#2D3E51"/>
<path d="M217.364 771.917C213.248 769.512 205.579 767.625 205.579 767.625L202.324 785.974C201.8 788.804 203.484 791.54 205.803 791.681L240.11 793.332C230.757 773.851 217.364 771.917 217.364 771.917Z" fill="#2D3E51"/>
<path d="M263.754 300.937L297.051 450.462L343.853 429.661L346.846 446.453L283.396 491.499L231.356 352.115C231.356 352.115 236.219 302.682 263.754 300.937Z" fill="#FEC83D"/>
<path d="M298.51 457.679C299.558 459.235 301.54 458.669 303.074 457.962C317.179 451.5 331.021 443.953 344.415 435.415C344.564 435.321 344.714 435.227 344.863 435.132L343.891 429.661L297.388 450.321C297.537 451.83 297.65 453.339 297.799 454.849C297.874 455.839 297.986 456.877 298.51 457.679Z" fill="#BF9330"/>
<path d="M175.163 291.314C175.163 291.314 129.82 382.963 119.456 455.132C109.093 527.3 126.003 672.91 126.003 672.91C126.003 672.91 113.77 692.013 109.692 719.749C106.923 738.38 107.485 753.38 108.158 761.21C108.457 764.653 110.627 767.342 113.358 767.625L121.327 768.474C124.021 768.757 126.527 766.635 127.313 763.333L172.843 569.28H181.336L200.64 683.995C200.64 683.995 194.43 713.9 203.259 772.012C203.895 776.163 206.739 779.134 210.068 779.134H218.112C221.89 779.134 224.958 775.314 225.033 770.55L230.084 446.17L263.754 300.89C262.931 303.484 203.484 254.853 175.163 291.314Z" fill="#FEC83D"/>
<path d="M174.34 319.191C176.023 323.672 180.288 325.37 184.142 326.361C194.018 328.955 204.12 330.04 214.146 329.568C216.989 329.427 219.908 329.191 222.377 327.399C226.006 324.804 227.802 319.569 229.41 314.757C232.441 305.559 235.583 296.456 238.838 287.399C238.763 287.352 238.688 287.305 238.576 287.258C236.032 290.182 234.274 294.286 232.927 298.39C231.169 303.72 229.897 309.38 227.278 314.097C222.826 322.068 214.969 326.219 207.262 326.691C199.555 327.163 191.923 324.38 184.778 320.748C181.822 319.238 178.605 317.163 177.744 313.342C177.108 310.606 177.857 307.729 178.605 305.041C180.7 297.541 182.757 290.041 184.853 282.541C184.067 283.013 183.319 283.484 182.57 284.05C179.765 291.456 177.258 299.05 175.088 306.786C173.966 310.795 172.918 315.323 174.34 319.191Z" fill="#BF9330"/>
<path d="M251.109 304.192C252.119 301.456 253.242 298.437 253.728 295.465C249.65 293.06 244.562 290.135 238.875 287.399C243.028 291.833 247.181 289.097 246.059 296.126C245.086 302.116 233.862 331.125 232.328 336.455C223.162 368.577 230.383 408.482 237.641 413.623L246.358 376.077C241.307 352.351 242.841 326.408 251.109 304.192Z" fill="#BF9330"/>
<path d="M232.328 336.455C233.862 331.125 245.086 302.069 246.058 296.126C247.181 289.098 243.066 291.833 238.875 287.399C235.621 296.456 232.478 305.607 229.448 314.757C227.839 319.616 226.043 324.804 222.414 327.399C219.945 329.144 217.027 329.427 214.183 329.568C204.12 329.993 194.018 328.908 184.179 326.361C180.326 325.37 176.061 323.672 174.377 319.191C172.918 315.323 173.966 310.795 175.125 306.786C177.37 298.909 179.914 291.173 182.795 283.626C180.962 284.994 179.203 286.598 177.52 288.484C172.656 297.258 168.129 306.409 165.847 315.229C161.582 331.597 157.242 348.247 149.723 362.634C146.842 368.105 143.4 373.294 139.509 377.728C130.867 402.774 123.085 430.085 119.494 455.085C109.131 527.253 126.041 672.863 126.041 672.863C126.041 672.863 113.807 691.966 109.729 719.702C106.961 738.333 107.522 753.333 108.195 761.163C108.495 764.606 110.665 767.295 113.396 767.578L121.364 768.427C124.058 768.71 126.565 766.587 127.35 763.286L172.843 569.28H181.336L200.64 683.995C200.64 683.995 194.43 713.9 203.259 772.012C203.895 776.163 206.738 779.134 210.068 779.134H218.112C221.89 779.134 224.958 775.314 225.033 770.55L230.084 446.17L237.641 413.576C230.383 408.482 223.162 368.577 232.328 336.455Z" fill="#A4D38F"/>
<path d="M179.241 455.367C202.548 439.849 217.588 407.585 219.459 374.426C220.319 359.332 218.71 344.143 218.673 329.049C217.214 329.38 215.68 329.521 214.183 329.568C206.252 329.898 198.283 329.285 190.427 327.776C188.668 334.521 188.07 341.738 187.135 348.766C185.002 364.945 180.887 380.699 175.013 395.274C172.095 402.538 168.578 409.755 163.303 414.519C158.14 419.189 151.78 421.076 145.495 422.396C138.836 423.812 132.102 424.661 125.367 424.944C122.861 435.179 120.841 445.273 119.419 455.084C119.344 455.65 119.269 456.217 119.194 456.783C137.676 468.103 160.871 467.584 179.241 455.367Z" fill="#7BA863"/>
<path d="M166.483 565.554C162.106 562.771 156.644 559.045 152.828 562.865C150.359 565.365 150.022 569.893 149.835 573.903C148.301 606.591 142.465 638.665 135.618 670.316C135.506 670.221 135.394 670.174 135.282 670.08C134.608 669.608 133.935 669.042 133.261 668.523C132.962 668.288 130.493 666.354 131.578 665.835C132.064 665.599 132.139 664.703 131.578 664.467C129.071 663.571 129.184 667.674 130.268 669.325C131.503 671.212 133.074 672.769 134.833 673.948C132.925 682.674 130.942 691.4 128.996 700.079C123.908 722.579 118.82 745.078 113.695 767.578L121.327 768.38C124.021 768.663 126.527 766.54 127.313 763.238L172.843 569.28H174.078C171.459 568.337 168.915 567.11 166.483 565.554Z" fill="#7BA863"/>
<path d="M223.162 674.419C220.992 673.099 218.748 673.476 216.391 673.287C214.445 673.146 212.537 672.863 210.629 672.863C209.993 669.278 209.283 665.646 208.609 662.061C202.997 631.26 201.538 599.515 200.117 567.959C194.243 570.742 187.845 571.733 181.598 570.978L200.603 683.948C200.603 683.948 194.393 713.853 203.222 771.965C203.858 776.115 206.701 779.087 210.031 779.087H212.051C211.265 756.446 211.34 733.711 212.275 711.07C212.612 702.532 213.099 693.9 212.388 685.41C212.126 682.249 211.677 679.089 211.153 675.929C212.687 676.636 214.296 677.061 215.942 677.344C218.411 677.768 220.88 678.429 223.162 676.919C223.911 676.495 223.948 674.891 223.162 674.419Z" fill="#7BA863"/>
<path d="M140.632 433.198C135.207 432.161 129.67 432.349 124.245 432.349C123.385 432.349 123.422 433.906 124.245 434C129.595 434.661 135.057 435.463 140.445 435.085C141.23 435.085 141.53 433.387 140.632 433.198Z" fill="#7BA863"/>
<path d="M159.674 436.783C156.419 434.189 152.304 434.472 148.675 435.463C147.927 435.651 148.076 437.161 148.862 437.161C152.416 437.113 155.746 438.387 159.263 438.811C160.123 438.953 160.348 437.302 159.674 436.783Z" fill="#7BA863"/>
<path d="M185.975 441.594C182.945 440.934 179.914 440.038 177.033 438.623C175.275 437.774 174.489 441.359 176.248 442.208C179.353 443.67 182.421 444.425 185.713 444.047C186.723 443.953 187.135 441.83 185.975 441.594Z" fill="#7BA863"/>
<path d="M206.701 444.755C204.419 443.622 202.361 443.151 199.93 442.773C199.256 442.679 198.957 444.047 199.593 444.377C201.838 445.604 203.82 446.5 206.215 446.924C207.375 447.16 207.786 445.273 206.701 444.755Z" fill="#7BA863"/>
<path d="M224.397 450.556C222.788 449.141 221.179 448.009 219.421 446.83C217.812 445.792 216.353 448.906 217.999 449.896C219.87 451.028 221.666 452.066 223.611 452.868C224.771 453.339 225.295 451.358 224.397 450.556Z" fill="#7BA863"/>
<path d="M226.455 395.463C226.417 394.661 225.407 394.426 225.295 395.275C224.846 398.624 223.798 401.737 223.312 405.039C223.2 405.652 223.873 406.359 224.285 405.746C226.193 402.869 226.567 399.142 226.455 395.463Z" fill="#7BA863"/>
<path d="M222.003 413.199C221.516 415.982 220.768 418.718 220.843 421.595C220.88 422.491 221.778 422.586 222.04 421.784C222.863 419.142 222.901 416.218 223.162 413.388C223.275 412.586 222.152 412.397 222.003 413.199Z" fill="#7BA863"/>
<path d="M219.908 431.972C219.646 430.981 218.374 431.406 218.636 432.397C218.972 433.576 218.86 434.849 218.299 435.934C218 436.595 218.748 437.349 219.159 436.736C220.057 435.415 220.319 433.717 219.908 431.972Z" fill="#7BA863"/>
<path d="M226.268 551.403C225.968 550.13 225.07 549.705 224.21 549.234C223.088 548.62 222.077 547.866 221.18 546.875C217.588 543.007 216.017 537.205 215.493 531.451C214.857 524.423 215.194 517.159 215.343 510.131C215.493 502.159 215.83 494.188 216.241 486.263C216.69 477.914 217.064 469.282 218.299 461.028C218.448 460.037 217.251 459.613 217.102 460.603C216.017 467.867 214.707 474.943 213.884 482.254C213.099 489.282 212.537 496.357 212.163 503.433C211.789 510.555 211.452 517.678 211.415 524.847C211.378 531.215 211.901 537.913 214.296 543.668C216.166 548.149 219.272 552.347 223.2 553.903C224.547 554.422 226.866 553.762 226.268 551.403Z" fill="#7BA863"/>
<path d="M163.191 439.33C162.742 441.217 161.956 443.009 161.433 444.849C160.909 446.736 160.497 448.622 160.086 450.509C159.338 454.047 158.664 457.632 158.103 461.216C156.906 468.575 156.008 476.075 155.447 483.527C154.886 491.121 154.699 498.763 154.811 506.404C154.923 513.715 154.773 521.781 156.906 528.715C157.355 530.13 158.776 529.847 158.926 528.385C159.674 521.168 158.627 513.668 158.477 506.404C158.327 498.904 158.515 491.452 158.963 483.952C159.412 476.499 160.086 469.141 161.096 461.782C161.582 458.15 162.144 454.566 162.78 450.934C163.079 449.141 163.416 447.349 163.677 445.556C163.977 443.622 164.052 441.547 164.463 439.66C164.65 438.764 163.453 438.34 163.191 439.33Z" fill="#7BA863"/>
<path d="M240.147 295.748C239.848 298.343 239.1 300.795 238.352 303.201C238.165 303.814 238.913 304.38 239.249 303.861C240.746 301.55 241.27 298.861 241.307 295.937C241.307 295.135 240.26 294.899 240.147 295.748Z" fill="#7BA863"/>
<path d="M230.42 322.87C230.196 325.37 229.56 327.681 228.699 329.945C228.437 330.653 229.186 331.219 229.522 330.559C230.682 328.247 231.281 325.606 231.468 322.87C231.543 322.021 230.495 322.021 230.42 322.87Z" fill="#7BA863"/>
<path d="M223.948 346.313C223.611 347.964 223.275 349.615 223.013 351.313C222.901 352.068 223.761 352.398 223.948 351.643C224.36 349.992 224.696 348.341 225.033 346.691C225.22 345.794 224.098 345.417 223.948 346.313Z" fill="#7BA863"/>
<path d="M224.322 377.397C223.312 374.001 222.863 370.558 223.237 366.926C223.349 365.935 222.077 365.935 222.003 366.926C221.629 370.747 222.04 374.426 223.387 377.869C223.611 378.53 224.509 378.105 224.322 377.397Z" fill="#7BA863"/>
<path d="M149.124 374.803C148.039 377.869 146.019 380.464 143.475 381.596C142.689 381.926 143.026 383.482 143.812 383.152C146.767 381.784 149.012 379.048 149.872 375.181C150.022 374.662 149.311 374.237 149.124 374.803Z" fill="#7BA863"/>
<path d="M160.198 354.285C159.3 355.558 158.664 356.926 158.103 358.436C157.729 359.426 158.739 360.134 159.225 359.285C160.011 357.917 160.684 356.549 161.133 354.992C161.32 354.285 160.535 353.766 160.198 354.285Z" fill="#7BA863"/>
<path d="M167.493 332.682C167.456 331.833 166.558 331.88 166.483 332.682C166.221 335.134 165.249 337.682 163.902 339.474C163.341 340.229 164.201 341.219 164.8 340.606C166.67 338.483 167.606 335.842 167.493 332.682Z" fill="#7BA863"/>
<path d="M171.983 309.239C170.748 312.163 169.925 315.276 169.027 318.389C168.541 320.135 170.748 320.889 171.235 319.144C172.095 316.125 172.956 313.154 173.479 310.04C173.666 308.956 172.432 308.154 171.983 309.239Z" fill="#7BA863"/>
<path d="M300.194 420.463C299.595 421.406 299.408 422.68 299.333 423.906C298.959 427.868 299.109 431.925 299.782 435.84C299.894 436.594 300.044 437.396 300.418 438.009C301.129 439.236 302.513 439.519 303.673 439.142C304.833 438.764 305.805 437.726 306.666 436.689C308.462 434.613 310.07 432.161 310.931 429.283C311.791 426.406 311.716 422.963 310.37 420.463C308.237 416.453 302.513 416.689 300.194 420.463Z" fill="#EC5946"/>
<path d="M250.286 270.136C249.388 273.154 248.378 276.173 246.582 278.485C244.787 280.796 242.093 282.164 239.661 281.268C237.155 280.324 234.835 277.117 232.403 278.296C230.046 279.428 229.897 283.484 228.625 286.22C227.278 289.003 224.547 290.371 221.965 290.418C219.384 290.465 216.84 289.428 214.371 288.39C213.323 287.966 212.201 287.447 211.602 286.267C210.891 284.9 211.153 283.154 211.415 281.598C213.061 272.117 215.456 262.777 218.561 253.862C220.544 248.155 222.938 242.353 227.053 238.863C231.842 234.759 238.015 234.57 243.814 234.476C245.161 234.476 246.582 234.476 247.817 235.184C255.561 239.57 252.456 262.777 250.286 270.136Z" fill="#EC5946"/>
<path d="M240.634 261.315C236.893 267.211 231.505 271.456 225.632 272.966C223.649 273.485 221.554 273.72 219.608 273.013C215.643 271.645 212.986 266.928 211.602 262.07C207.973 249.381 211.602 233.957 220.132 225.797C228.662 217.637 241.382 217.354 250.136 225.137C251.633 226.457 253.017 228.014 254.065 229.948C256.197 233.863 259.115 245.749 255.935 249.853C253.578 252.872 250.885 250.891 248.116 250.089C245.086 249.193 241.794 247.023 238.763 249.24C232.478 253.721 239.175 263.626 240.634 261.315Z" fill="#2D3E51"/>
<path d="M230.346 280.89C230.982 280.89 231.655 280.937 232.141 281.409C232.665 281.928 232.852 282.824 232.927 283.673C233.451 290.041 229.335 296.126 224.36 297.635C219.421 299.144 214.071 296.833 210.106 292.777C206.177 288.767 201.838 280.277 208.497 277.305C214.483 274.711 224.023 280.796 230.346 280.89Z" fill="#FEC83D"/>
<path d="M186.985 212.118C171.384 218.014 159.787 235.231 153.464 254.193C147.141 273.155 145.345 293.862 143.437 314.286C141.642 333.484 139.696 352.681 135.955 371.407C133.935 381.454 131.316 391.501 126.527 399.897C119.943 411.454 109.318 419.236 98.0568 420.651C118.521 432.632 143.063 432.868 163.677 421.265C170.299 417.538 176.584 412.633 181.86 406.312C196.937 388.388 202.698 361.124 203.858 335.04C205.018 308.956 202.212 282.777 203.334 256.693C203.521 252.636 203.858 248.344 205.691 244.995C207.524 241.646 211.378 239.665 214.109 241.835C215.119 242.636 215.867 243.863 216.802 244.806C221.217 249.146 227.203 242.919 227.914 237.118C228.737 230.608 223.686 224.052 220.02 220.184C211.116 210.75 198.022 207.92 186.985 212.118Z" fill="#2D3E51"/>
<path d="M188.407 241.646C177.744 260.608 183.581 286.692 180.775 309.663C182.945 305.088 185.077 300.559 187.247 295.984C190.352 329.993 185.788 366.596 168.728 393.246C152.454 418.859 123.085 432.349 99.0669 420.463C98.7302 420.51 98.3935 420.557 98.0568 420.604C118.521 432.585 143.063 432.821 163.677 421.217C170.299 417.491 176.584 412.585 181.86 406.265C196.937 388.341 202.698 361.077 203.858 334.993C205.018 308.908 202.212 282.73 203.334 256.645C203.521 252.589 203.858 248.296 205.691 244.947C207.524 241.598 211.378 239.617 214.109 241.787C215.119 242.589 215.867 243.815 216.802 244.759C221.217 249.098 227.203 242.872 227.914 237.07C228.138 235.467 227.951 233.816 227.577 232.259C224.098 229.382 220.169 227.401 216.092 226.693C205.616 224.759 194.505 230.75 188.407 241.646Z" fill="#39546B"/>
<path d="M504.575 426.406C503.041 427.396 502.031 429.991 502.892 431.877C503.341 432.868 504.276 433.859 503.865 434.896C503.64 435.462 503.079 435.745 502.854 436.311C502.293 437.821 504.351 438.764 504.762 440.321C504.987 441.311 504.538 442.255 504.239 443.198C503.939 444.141 503.864 445.462 504.575 445.934C504.8 446.075 505.062 446.122 505.286 446.264C505.96 446.783 505.66 448.104 505.81 449.141C506.109 451.075 508.279 451.547 509.626 450.651C511.01 449.707 511.833 447.962 512.956 446.547C514.639 444.424 516.959 443.151 519.353 443.104C524.553 442.962 520.026 434.047 517.931 431.076C515.275 427.396 508.354 423.953 504.575 426.406Z" fill="#EF7C2E"/>
<path d="M623.695 284.664L619.093 285.183L595.711 421.17L515.238 429.519L520.588 442.491L604.952 452.585L649.659 331.031C658.077 308.107 643.636 282.305 623.695 284.664Z" fill="#FEC83D"/>
<path d="M596.871 428.481C610.563 385.086 614.08 337.587 626.538 293.626C627.361 290.654 628.446 287.541 629.868 284.852C627.885 284.522 625.827 284.428 623.732 284.664L619.131 285.183L595.748 421.17L591.708 421.595C592.83 424.425 594.663 426.878 596.871 428.481Z" fill="#FFEBC0"/>
<path d="M596.197 418.246L595.711 421.171L590.398 421.737C593.429 429.284 597.357 436.217 601.996 442.302C600.462 434.142 598.517 426.076 596.197 418.246Z" fill="#BF9330"/>
<path d="M555.942 267.778C555.568 270.23 556.989 272.494 558.486 274.098C561.516 277.353 565.258 279.475 568.999 281.315C573.451 283.485 578.165 285.277 582.916 284.617C587.667 283.909 592.381 280.183 593.653 274.381C591.708 276.126 589.538 277.683 587.144 277.73C584.749 277.777 582.205 275.843 581.868 272.872C581.644 270.938 582.355 269.098 583.028 267.353C584.674 263.155 591.633 267.07 593.279 271.268C594.327 273.862 596.459 274.57 597.656 277.023C600.2 273.108 601.023 267.73 600.5 262.73C599.976 257.731 598.217 253.014 596.085 248.768C593.728 244.099 590.772 239.712 586.844 237.259C583.589 235.231 579.848 234.665 576.219 234.948C569.335 235.467 562.414 239.099 558.187 245.938C553.959 252.731 552.313 260.419 555.942 267.778Z" fill="#2D3E51"/>
<path d="M461.477 436.547C461.29 438.198 461.327 440.038 462 441.453C463.048 443.623 465.33 444.283 467.35 444.424C468.697 444.566 470.081 444.519 471.316 443.906C475.88 441.547 478.162 428.623 472.962 425.887C467.425 423.057 462.15 430.415 461.477 436.547Z" fill="#EF7C2E"/>
</svg>
