<svg width="850" height="880" viewBox="0 0 850 880" fill="none" xmlns="http://www.w3.org/2000/svg">
<path d="M45.4182 460.684C44.1462 415.743 43.7347 370.333 50.9178 326.239C54.2474 305.884 59.3355 285.577 69.1374 268.842C80.1739 250.038 96.3733 237.158 112.498 225.547C252.755 124.525 421.446 84.6623 580.297 122.316C637.089 135.761 693.655 159.641 738.961 204.675C784.267 249.756 817.115 318.577 816.329 391.205C815.918 429.094 806.677 465.902 797.249 501.91C784.716 549.765 771.697 597.478 758.228 644.957C751.232 669.59 743.787 694.833 729.795 714.154C716.851 732.017 699.192 743.393 681.122 751.572C626.464 776.299 566.53 774.231 508.765 766.615C451.001 758.906 393.2 746.025 335.211 750.256C264.652 755.38 194.505 790.449 123.534 785.607C99.2166 783.961 91.3975 766.897 82.9424 740.337C69.6986 698.594 61.206 654.641 55.6317 610.312C49.4587 560.765 46.8773 510.701 45.4182 460.684Z" fill="#2B83C5"/>
<path d="M533.083 154.893H302.625V269.782H533.083V154.893Z" fill="#2979AA"/>
<path d="M533.083 144.034H302.625V258.923H533.083V144.034Z" fill="#7AD6E2"/>
<path d="M521.037 144.034L446.587 258.923H458.82L533.383 144.034H521.037Z" fill="#B3FAFF"/>
<path d="M490.247 144.034L415.797 258.923H428.03L502.592 144.034H490.247Z" fill="#B3FAFF"/>
<path d="M411.12 144.034L336.708 258.923H348.904L423.466 144.034H411.12Z" fill="#B3FAFF"/>
<path d="M380.33 144.034L305.88 258.923H318.114L392.676 144.034H380.33Z" fill="#B3FAFF"/>
<path d="M418.49 144.034H414.375V258.923H418.49V144.034Z" fill="#2B83C5"/>
<path d="M343.704 287.458H281.712V314.769H343.704V287.458Z" fill="#2979AA"/>
<path d="M488.6 287.458H426.609V314.769H488.6V287.458Z" fill="#2979AA"/>
<path d="M365.178 336.111H303.187V363.423H365.178V336.111Z" fill="#2979AA"/>
<path d="M528.22 336.111H466.228V363.423H528.22V336.111Z" fill="#2979AA"/>
<path d="M729.272 267.949H667.28V295.261H729.272V267.949Z" fill="#2979AA"/>
<path d="M304.608 622.581H242.617V649.893H304.608V622.581Z" fill="#2979AA"/>
<path d="M449.467 622.581H387.476V649.893H449.467V622.581Z" fill="#2979AA"/>
<path d="M326.083 671.282H264.091V698.594H326.083V671.282Z" fill="#2979AA"/>
<path d="M123.572 499.889H61.5801V527.201H123.572V499.889Z" fill="#2979AA"/>
<path d="M150.209 608.949H88.2173V636.261H150.209V608.949Z" fill="#2979AA"/>
<path d="M489.124 671.282H427.132V698.594H489.124V671.282Z" fill="#2979AA"/>
<path d="M147.403 175.436H117.361V790.589H147.403V175.436Z" fill="#25698C"/>
<path d="M138.611 175.436H108.57V790.589H138.611V175.436Z" fill="#1D566D"/>
<path d="M128.697 175.436H98.6553V790.589H128.697V175.436Z" fill="#163F4C"/>
<path d="M121.926 175.436H91.8837V790.589H121.926V175.436Z" fill="#25698C"/>
<path d="M695.189 286.423H113.508V307.718H695.189V286.423Z" fill="#25698C"/>
<path d="M730.656 144.034H699.08V790.637H730.656V144.034Z" fill="#25698C"/>
<path d="M721.378 144.034H689.802V790.637H721.378V144.034Z" fill="#1D566D"/>
<path d="M710.977 144.034H679.401V790.637H710.977V144.034Z" fill="#163F4C"/>
<path d="M703.831 144.034H672.256V790.637H703.831V144.034Z" fill="#25698C"/>
<path d="M645.918 654.171H583.926V681.483H645.918V654.171Z" fill="#2979AA"/>
<path d="M437.907 812.308C647.4 812.308 817.227 794.334 817.227 772.162C817.227 749.991 647.4 732.017 437.907 732.017C228.415 732.017 58.5872 749.991 58.5872 772.162C58.5872 794.334 228.415 812.308 437.907 812.308Z" fill="#FF777F"/>
<path d="M114.705 766.709C113.508 769.53 112.872 773.196 114.293 775.829C115.416 777.897 117.473 778.743 119.344 779.449C154.324 792.235 191.325 792.047 227.727 791.765C249.725 791.577 271.76 791.389 293.759 791.248C348.867 790.825 403.974 790.355 459.045 788.662C487.889 787.769 516.771 786.547 545.616 787.581C618.644 790.167 693.019 806.949 763.84 784.479C769.265 782.739 775.999 778.085 774.54 771.316C774.016 768.825 772.407 766.944 770.836 765.252C764.888 758.953 758.228 753.641 751.157 749.551C709.555 743.111 650.744 738.034 581.756 735.026C527.284 734.179 472.775 733.803 418.266 734.226C371.912 734.602 325.559 735.543 279.243 737.329C261.884 737.987 247.069 742.735 230.308 745.461C217.064 747.624 191.138 743.628 166.932 744.051C157.317 745.085 148.264 746.167 139.771 747.295C128.286 750.491 119.082 756.32 114.705 766.709Z" fill="#CC4E5A"/>
<path d="M623.695 283.696C623.695 283.696 567.128 278.714 558.598 288.303C550.031 297.893 515.238 428.06 515.238 428.06L465.293 427.402L464.357 439.671L524.815 464.961L562.826 379.782L570.533 464.914C570.533 464.914 624.63 471.778 655.308 444.795L638.772 347.957L623.695 283.696Z" fill="#FEC83D"/>
<path d="M568.437 377.103C567.427 369.111 566.791 361.026 566.455 352.94C566.268 348.239 567.203 335.077 561.441 340.859C557.363 344.949 554.333 355.761 551.939 361.543C548.834 368.97 545.99 376.538 543.259 384.201C541.052 390.359 538.919 396.658 538.022 403.286C537.124 409.962 537.573 417.107 540.304 422.936C540.827 424.017 541.426 425.098 542.137 426.038L562.788 379.735L565.819 413.017C568.288 407.564 569.747 401.359 569.934 395.06C570.121 389.09 569.186 383.073 568.437 377.103Z" fill="#BF9330"/>
<path d="M601.809 300.902C609.74 296.718 616.661 290.184 623.732 283.979L623.658 283.744C623.658 283.744 567.091 278.761 558.561 288.351C557.176 289.902 555.119 294.603 552.612 301.419C554.333 302.688 556.466 303.487 558.374 304.004C572.815 307.53 588.228 308 601.809 300.902Z" fill="#BF9330"/>
<path d="M546.851 390.97C541.613 385.47 534.991 382.65 528.481 380.017C521.036 406.342 515.238 428.06 515.238 428.06L465.293 427.402L464.357 439.671L524.815 464.962L553.547 400.607C551.639 396.987 549.47 393.697 546.851 390.97Z" fill="#BF9330"/>
<path d="M526.125 747.06C524.03 748.423 521.598 750.962 522.496 753.688C532.298 754.675 542.212 753.594 551.939 751.808C555.418 751.15 559.01 750.35 561.853 747.859C573.376 737.705 559.047 730.842 551.004 733.051C542.623 735.402 533.719 742.171 526.125 747.06Z" fill="#2D3E51"/>
<path d="M646.778 751.15C644.683 752.513 642.251 755.051 643.149 757.778C652.951 758.765 662.865 757.684 672.592 755.898C676.072 755.239 679.663 754.44 682.507 751.949C694.029 741.795 679.701 734.932 671.657 737.141C663.277 739.492 654.373 746.214 646.778 751.15Z" fill="#2D3E51"/>
<path d="M582.055 453.915L537.61 629.538L547.375 736.859L563.985 738.316L568.475 626.248L617.597 470.697L629.419 476.855L636.34 626.248L663.726 744.992L682.544 739.774L668.963 617.551C668.963 617.551 669.936 484.188 655.233 444.889C640.643 405.496 582.055 453.915 582.055 453.915Z" fill="#7BA863"/>
<path d="M642.7 370.992C636.378 370.662 630.392 368.547 626.501 362.53C623.807 358.346 622.685 352.94 621.712 347.675C617.859 326.474 615.651 304.803 615.09 283.086C612.883 282.945 610.302 282.803 607.533 282.709C607.945 304.145 608.618 325.534 609.516 346.97C599.452 351.013 588.677 352.282 578.165 350.684C575.546 350.308 572.74 349.603 570.982 347.158C569.597 345.278 569.074 342.645 568.587 340.107C565.332 322.291 563.312 304.098 562.489 285.812C560.768 286.517 559.421 287.316 558.561 288.256C557.626 289.291 556.391 291.782 554.932 295.355C557.289 324.124 559.608 352.846 561.965 381.615L562.788 379.735L570.533 464.915C570.533 464.915 624.63 471.778 655.308 444.795L642.7 370.992Z" fill="#A4D38F"/>
<path d="M617.971 462.423C629.494 442.162 639.333 420.397 647.227 397.551L638.772 348.004L638.51 346.829C636.527 345.372 634.507 343.962 632.487 342.598C631.514 341.94 630.392 341.282 629.307 341.658C628.484 341.987 627.885 342.88 627.361 343.774C614.941 364.316 609.703 390.077 600.874 413.346C599.003 418.282 596.796 423.359 593.204 426.462C589.426 429.658 584.674 430.269 580.147 430.645C575.957 430.974 571.73 431.209 567.54 431.303L570.533 464.444C571.131 464.68 571.73 464.915 572.328 465.15C578.09 465.667 597.507 466.936 617.971 462.423Z" fill="#7BA863"/>
<path d="M591.147 254.034C590.099 249.85 587.48 246.56 584.151 245.243C576.032 242 561.367 239.696 558.374 262.919C558.149 264.517 558.224 266.162 558.561 267.76C560.132 275.094 565.594 297 575.172 296.577C583.702 296.154 584.113 293.991 583.776 292.863L587.779 300.337C587.779 300.337 599.04 297.893 599.564 287.034L591.147 254.034Z" fill="#EF7C2E"/>
<path d="M610.9 412.171H601.36V469.803H610.9V412.171Z" fill="#FFEECB"/>
<path d="M610.9 412.171H601.36V419.034C603.68 418.235 607.645 416.825 610.9 415.744V412.171Z" fill="#998055"/>
<path d="M606.523 438.918H606.074C596.871 438.918 589.388 448.32 589.388 459.884V561.376H623.209V459.884C623.209 448.32 615.726 438.918 606.523 438.918Z" fill="#FFEECB"/>
<path d="M612.135 404.508H599.564C598.33 404.508 597.32 405.778 597.32 407.329V411.089C597.32 412.641 598.33 413.91 599.564 413.91H612.135C613.369 413.91 614.379 412.641 614.379 411.089V407.329C614.379 405.778 613.369 404.508 612.135 404.508Z" fill="#FFEECB"/>
<path d="M623.732 481.508H589.388V506.987H623.732V481.508Z" fill="#8681BD"/>
<path d="M597.619 441.833C592.718 445.5 589.388 452.175 589.388 459.884V481.555H597.619V441.833Z" fill="#FFFBF3"/>
<path d="M597.619 506.987H589.388V561.376H597.619V506.987Z" fill="#FFFBF3"/>
<path d="M597.619 481.508H589.388V506.987H597.619V481.508Z" fill="#A2A0EA"/>
<path d="M623.209 506.987H614.379V561.376H623.209V506.987Z" fill="#998055"/>
<path d="M623.209 481.508V459.837C623.209 451.846 619.617 444.888 614.379 441.363V481.508H623.209Z" fill="#998055"/>
<path d="M623.209 481.508H614.379V506.987H623.209V481.508Z" fill="#525177"/>
<path d="M686.645 372.223L677.107 372.003L676.267 429.624L685.805 429.844L686.645 372.223Z" fill="#FFEECB"/>
<path d="M686.659 372.26L677.119 372.025L677.007 378.889C679.327 378.136 683.33 376.867 686.584 375.786L686.659 372.26Z" fill="#998055"/>
<path d="M681.908 398.868H681.459C672.256 398.633 664.661 407.846 664.474 419.457L662.978 520.902L696.761 521.701L698.257 420.257C698.444 408.645 691.111 399.103 681.908 398.868Z" fill="#FFEECB"/>
<path d="M688.006 364.598L675.436 364.316C674.201 364.269 673.154 365.538 673.154 367.09L673.116 370.85C673.079 372.402 674.089 373.718 675.323 373.718L687.894 374C689.128 374.047 690.176 372.778 690.176 371.226L690.213 367.466C690.251 365.915 689.241 364.598 688.006 364.598Z" fill="#FFEECB"/>
<path d="M698.455 441.84L664.118 441.049L663.746 466.523L698.084 467.313L698.455 441.84Z" fill="#8681BD"/>
<path d="M672.967 401.547C667.991 405.073 664.586 411.701 664.474 419.41L664.175 441.081L672.405 441.269L672.967 401.547Z" fill="#FFFBF3"/>
<path d="M663.777 466.521L662.984 520.899L671.213 521.088L672.006 466.71L663.777 466.521Z" fill="#FFFBF3"/>
<path d="M664.146 441.069L663.775 466.542L672.004 466.732L672.375 441.258L664.146 441.069Z" fill="#A2A0EA"/>
<path d="M688.742 467.129L687.949 521.507L696.776 521.71L697.569 467.332L688.742 467.129Z" fill="#998055"/>
<path d="M697.958 441.88L698.257 420.209C698.369 412.218 694.89 405.167 689.69 401.5L689.091 441.645L697.958 441.88Z" fill="#998055"/>
<path d="M689.111 441.677L688.74 467.151L697.567 467.354L697.938 441.881L689.111 441.677Z" fill="#525177"/>
<path d="M738.608 330.198L729.07 329.978L728.23 387.599L737.768 387.819L738.608 330.198Z" fill="#FFEECB"/>
<path d="M738.625 330.188L729.085 329.953L728.972 336.816C731.292 336.064 735.295 334.795 738.55 333.713L738.625 330.188Z" fill="#998055"/>
<path d="M733.873 356.841H733.424C724.221 356.606 716.626 365.82 716.439 377.431L714.943 478.876L748.726 479.675L750.222 378.23C750.409 366.572 743.077 357.029 733.873 356.841Z" fill="#FFEECB"/>
<path d="M739.971 322.525L727.401 322.243C726.166 322.196 725.119 323.466 725.119 325.017L725.081 328.778C725.044 330.329 726.054 331.645 727.289 331.645L739.859 331.927C741.094 331.974 742.141 330.705 742.141 329.154L742.179 325.393C742.179 323.842 741.206 322.573 739.971 322.525Z" fill="#FFEECB"/>
<path d="M750.418 399.816L716.081 399.025L715.709 424.499L750.047 425.29L750.418 399.816Z" fill="#8681BD"/>
<path d="M724.894 359.521C719.919 363.046 716.514 369.674 716.402 377.384L716.103 399.055L724.333 399.243L724.894 359.521Z" fill="#FFFBF3"/>
<path d="M715.716 424.518L714.923 478.896L723.152 479.085L723.945 424.707L715.716 424.518Z" fill="#FFFBF3"/>
<path d="M716.123 399.067L715.751 424.54L723.98 424.73L724.352 399.256L716.123 399.067Z" fill="#A2A0EA"/>
<path d="M740.719 425.079L739.926 479.457L748.754 479.66L749.547 425.282L740.719 425.079Z" fill="#998055"/>
<path d="M749.923 399.807L750.222 378.136C750.334 370.145 746.855 363.093 741.655 359.427L741.056 399.572L749.923 399.807Z" fill="#998055"/>
<path d="M741.088 399.628L740.717 425.102L749.544 425.305L749.916 399.831L741.088 399.628Z" fill="#525177"/>
<path d="M567.128 412.171H557.588V469.803H567.128V412.171Z" fill="#FFEECB"/>
<path d="M567.128 412.171H557.588V419.034C559.908 418.235 563.873 416.825 567.128 415.744V412.171Z" fill="#998055"/>
<path d="M562.751 438.918H562.302C553.099 438.918 545.616 448.32 545.616 459.884V561.376H579.437V459.884C579.437 448.32 571.992 438.918 562.751 438.918Z" fill="#FFEECB"/>
<path d="M568.363 404.508H555.792C554.558 404.508 553.547 405.778 553.547 407.329V411.089C553.547 412.641 554.558 413.91 555.792 413.91H568.363C569.597 413.91 570.607 412.641 570.607 411.089V407.329C570.607 405.778 569.597 404.508 568.363 404.508Z" fill="#FFEECB"/>
<path d="M579.998 481.508H545.654V506.987H579.998V481.508Z" fill="#8681BD"/>
<path d="M553.847 441.833C548.946 445.5 545.616 452.175 545.616 459.884V481.555H553.847V441.833Z" fill="#FFFBF3"/>
<path d="M553.884 506.987H545.654V561.376H553.884V506.987Z" fill="#FFFBF3"/>
<path d="M553.884 481.508H545.654V506.987H553.884V481.508Z" fill="#A2A0EA"/>
<path d="M579.437 506.987H570.607V561.376H579.437V506.987Z" fill="#998055"/>
<path d="M579.437 481.508V459.837C579.437 451.846 575.845 444.888 570.607 441.363V481.508H579.437Z" fill="#998055"/>
<path d="M579.437 481.508H570.607V506.987H579.437V481.508Z" fill="#525177"/>
<path d="M523.393 412.171H513.853V469.803H523.393V412.171Z" fill="#FFEECB"/>
<path d="M523.393 412.171H513.853V419.034C516.173 418.235 520.139 416.825 523.393 415.744V412.171Z" fill="#998055"/>
<path d="M519.016 438.918H518.567C509.364 438.918 501.882 448.32 501.882 459.884V561.376H535.702V459.884C535.702 448.32 528.22 438.918 519.016 438.918Z" fill="#FFEECB"/>
<path d="M524.628 404.508H512.058C510.823 404.508 509.813 405.778 509.813 407.329V411.089C509.813 412.641 510.823 413.91 512.058 413.91H524.628C525.863 413.91 526.873 412.641 526.873 411.089V407.329C526.873 405.778 525.863 404.508 524.628 404.508Z" fill="#FFEECB"/>
<path d="M536.226 481.508H501.882V506.987H536.226V481.508Z" fill="#8681BD"/>
<path d="M510.112 441.833C505.211 445.5 501.882 452.175 501.882 459.884V481.555H510.112V441.833Z" fill="#FFFBF3"/>
<path d="M510.112 506.987H501.882V561.376H510.112V506.987Z" fill="#FFFBF3"/>
<path d="M510.112 481.508H501.882V506.987H510.112V481.508Z" fill="#A2A0EA"/>
<path d="M535.702 506.987H526.873V561.376H535.702V506.987Z" fill="#998055"/>
<path d="M535.702 481.508V459.837C535.702 451.846 532.11 444.888 526.873 441.363V481.508H535.702Z" fill="#998055"/>
<path d="M535.702 481.508H526.873V506.987H535.702V481.508Z" fill="#525177"/>
<path d="M479.621 412.171H470.081V469.803H479.621V412.171Z" fill="#FFEECB"/>
<path d="M479.621 412.171H470.081V419.034C472.401 418.235 476.367 416.825 479.621 415.744V412.171Z" fill="#998055"/>
<path d="M475.244 438.918H474.795C465.592 438.918 458.11 448.32 458.11 459.884V561.376H491.93V459.884C491.93 448.32 484.485 438.918 475.244 438.918Z" fill="#FFEECB"/>
<path d="M480.856 404.508H468.286C467.051 404.508 466.041 405.778 466.041 407.329V411.089C466.041 412.641 467.051 413.91 468.286 413.91H480.856C482.091 413.91 483.101 412.641 483.101 411.089V407.329C483.101 405.778 482.091 404.508 480.856 404.508Z" fill="#FFEECB"/>
<path d="M492.491 481.508H458.147V506.987H492.491V481.508Z" fill="#8681BD"/>
<path d="M466.34 441.833C461.439 445.5 458.11 452.175 458.11 459.884V481.555H466.34V441.833Z" fill="#FFFBF3"/>
<path d="M466.378 506.987H458.147V561.376H466.378V506.987Z" fill="#FFFBF3"/>
<path d="M466.378 481.508H458.147V506.987H466.378V481.508Z" fill="#A2A0EA"/>
<path d="M491.93 506.987H483.101V561.376H491.93V506.987Z" fill="#998055"/>
<path d="M491.93 481.508V459.837C491.93 451.846 488.339 444.888 483.101 441.363V481.508H491.93Z" fill="#998055"/>
<path d="M491.93 481.508H483.101V506.987H491.93V481.508Z" fill="#525177"/>
<path d="M435.887 412.171H426.347V469.803H435.887V412.171Z" fill="#FFEECB"/>
<path d="M435.887 412.171H426.347V419.034C428.666 418.235 432.632 416.825 435.887 415.744V412.171Z" fill="#998055"/>
<path d="M431.51 438.918H431.061C421.857 438.918 414.375 448.32 414.375 459.884V561.376H448.195V459.884C448.195 448.32 440.713 438.918 431.51 438.918Z" fill="#FFEECB"/>
<path d="M437.121 404.508H424.551C423.316 404.508 422.306 405.778 422.306 407.329V411.089C422.306 412.641 423.316 413.91 424.551 413.91H437.121C438.356 413.91 439.366 412.641 439.366 411.089V407.329C439.366 405.778 438.356 404.508 437.121 404.508Z" fill="#FFEECB"/>
<path d="M448.719 481.508H414.375V506.987H448.719V481.508Z" fill="#8681BD"/>
<path d="M422.606 441.833C417.705 445.5 414.375 452.175 414.375 459.884V481.555H422.606V441.833Z" fill="#FFFBF3"/>
<path d="M422.606 506.987H414.375V561.376H422.606V506.987Z" fill="#FFFBF3"/>
<path d="M422.606 481.508H414.375V506.987H422.606V481.508Z" fill="#A2A0EA"/>
<path d="M448.195 506.987H439.366V561.376H448.195V506.987Z" fill="#998055"/>
<path d="M448.195 481.508V459.837C448.195 451.846 444.604 444.888 439.366 441.363V481.508H448.195Z" fill="#998055"/>
<path d="M448.195 481.508H439.366V506.987H448.195V481.508Z" fill="#525177"/>
<path d="M392.115 412.171H382.575V469.803H392.115V412.171Z" fill="#FFEECB"/>
<path d="M392.115 412.171H382.575V419.034C384.894 418.235 388.86 416.825 392.115 415.744V412.171Z" fill="#998055"/>
<path d="M387.775 438.918H387.326C378.123 438.918 370.641 448.32 370.641 459.884V561.376H404.461V459.884C404.424 448.32 396.979 438.918 387.775 438.918Z" fill="#FFEECB"/>
<path d="M393.35 404.508H380.779C379.545 404.508 378.534 405.778 378.534 407.329V411.089C378.534 412.641 379.545 413.91 380.779 413.91H393.35C394.584 413.91 395.594 412.641 395.594 411.089V407.329C395.594 405.778 394.622 404.508 393.35 404.508Z" fill="#FFEECB"/>
<path d="M404.985 481.508H370.641V506.987H404.985V481.508Z" fill="#8681BD"/>
<path d="M378.834 441.833C373.933 445.5 370.603 452.175 370.603 459.884V481.555H378.834V441.833Z" fill="#FFFBF3"/>
<path d="M378.871 506.987H370.641V561.376H378.871V506.987Z" fill="#FFFBF3"/>
<path d="M378.871 481.508H370.641V506.987H378.871V481.508Z" fill="#A2A0EA"/>
<path d="M404.424 506.987H395.594V561.376H404.424V506.987Z" fill="#998055"/>
<path d="M404.424 481.508V459.837C404.424 451.846 400.832 444.888 395.594 441.363V481.508H404.424Z" fill="#998055"/>
<path d="M404.424 481.508H395.594V506.987H404.424V481.508Z" fill="#525177"/>
<path d="M348.38 412.171H338.84V469.803H348.38V412.171Z" fill="#FFEECB"/>
<path d="M348.38 412.171H338.84V419.034C341.16 418.235 345.125 416.825 348.38 415.744V412.171Z" fill="#998055"/>
<path d="M344.003 438.918H343.554C334.351 438.918 326.868 448.32 326.868 459.884V561.376H360.689V459.884C360.689 448.32 353.206 438.918 344.003 438.918Z" fill="#FFEECB"/>
<path d="M349.615 404.508H337.044C335.81 404.508 334.8 405.778 334.8 407.329V411.089C334.8 412.641 335.81 413.91 337.044 413.91H349.615C350.849 413.91 351.86 412.641 351.86 411.089V407.329C351.86 405.778 350.849 404.508 349.615 404.508Z" fill="#FFEECB"/>
<path d="M361.213 481.508H326.868V506.987H361.213V481.508Z" fill="#8681BD"/>
<path d="M335.099 441.833C330.198 445.5 326.868 452.175 326.868 459.884V481.555H335.099V441.833Z" fill="#FFFBF3"/>
<path d="M335.099 506.987H326.868V561.376H335.099V506.987Z" fill="#FFFBF3"/>
<path d="M335.099 481.508H326.868V506.987H335.099V481.508Z" fill="#A2A0EA"/>
<path d="M360.689 506.987H351.86V561.376H360.689V506.987Z" fill="#998055"/>
<path d="M360.689 481.508V459.837C360.689 451.846 357.097 444.888 351.86 441.363V481.508H360.689Z" fill="#998055"/>
<path d="M360.689 481.508H351.86V506.987H360.689V481.508Z" fill="#525177"/>
<path d="M304.608 412.171H295.068V469.803H304.608V412.171Z" fill="#FFEECB"/>
<path d="M304.608 412.171H295.068V419.034C297.388 418.235 301.353 416.825 304.608 415.744V412.171Z" fill="#998055"/>
<path d="M300.269 438.918H299.82C290.616 438.918 283.134 448.32 283.134 459.884V561.376H316.954V459.884C316.917 448.32 309.472 438.918 300.269 438.918Z" fill="#FFEECB"/>
<path d="M305.843 404.508H293.31C292.075 404.508 291.065 405.778 291.065 407.329V411.089C291.065 412.641 292.075 413.91 293.31 413.91H305.88C307.115 413.91 308.125 412.641 308.125 411.089V407.329C308.125 405.778 307.115 404.508 305.843 404.508Z" fill="#FFEECB"/>
<path d="M317.478 481.508H283.134V506.987H317.478V481.508Z" fill="#8681BD"/>
<path d="M291.327 441.833C286.426 445.5 283.096 452.175 283.096 459.884V481.555H291.327V441.833Z" fill="#FFFBF3"/>
<path d="M291.364 506.987H283.134V561.376H291.364V506.987Z" fill="#FFFBF3"/>
<path d="M291.364 481.508H283.134V506.987H291.364V481.508Z" fill="#A2A0EA"/>
<path d="M316.954 506.987H308.125V561.376H316.954V506.987Z" fill="#998055"/>
<path d="M316.917 481.508V459.837C316.917 451.846 313.325 444.888 308.088 441.363V481.508H316.917Z" fill="#998055"/>
<path d="M316.954 481.508H308.125V506.987H316.954V481.508Z" fill="#525177"/>
<path d="M260.874 412.171H251.334V469.803H260.874V412.171Z" fill="#FFEECB"/>
<path d="M260.874 412.171H251.334V419.034C253.653 418.235 257.619 416.825 260.874 415.744V412.171Z" fill="#998055"/>
<path d="M256.496 438.918H256.048C246.844 438.918 239.362 448.32 239.362 459.884V561.376H273.182V459.884C273.182 448.32 265.7 438.918 256.496 438.918Z" fill="#FFEECB"/>
<path d="M262.108 404.508H249.538C248.303 404.508 247.293 405.778 247.293 407.329V411.089C247.293 412.641 248.303 413.91 249.538 413.91H262.108C263.343 413.91 264.353 412.641 264.353 411.089V407.329C264.353 405.778 263.343 404.508 262.108 404.508Z" fill="#FFEECB"/>
<path d="M273.706 481.508H239.362V506.987H273.706V481.508Z" fill="#8681BD"/>
<path d="M247.592 441.833C242.691 445.5 239.362 452.175 239.362 459.884V481.555H247.592V441.833Z" fill="#FFFBF3"/>
<path d="M247.592 506.987H239.362V561.376H247.592V506.987Z" fill="#FFFBF3"/>
<path d="M247.592 481.508H239.362V506.987H247.592V481.508Z" fill="#A2A0EA"/>
<path d="M273.182 506.987H264.353V561.376H273.182V506.987Z" fill="#998055"/>
<path d="M273.182 481.508V459.837C273.182 451.846 269.591 444.888 264.353 441.363V481.508H273.182Z" fill="#998055"/>
<path d="M273.182 481.508H264.353V506.987H273.182V481.508Z" fill="#525177"/>
<path d="M217.102 412.171H207.562V469.803H217.102V412.171Z" fill="#FFEECB"/>
<path d="M217.102 412.171H207.562V419.034C209.881 418.235 213.847 416.825 217.102 415.744V412.171Z" fill="#998055"/>
<path d="M212.762 438.918H212.313C203.11 438.918 195.627 448.32 195.627 459.884V561.376H229.448V459.884C229.41 448.32 221.965 438.918 212.762 438.918Z" fill="#FFEECB"/>
<path d="M218.336 404.508H205.766C204.531 404.508 203.521 405.778 203.521 407.329V411.089C203.521 412.641 204.531 413.91 205.766 413.91H218.336C219.571 413.91 220.581 412.641 220.581 411.089V407.329C220.618 405.778 219.608 404.508 218.336 404.508Z" fill="#FFEECB"/>
<path d="M229.971 481.508H195.627V506.987H229.971V481.508Z" fill="#8681BD"/>
<path d="M203.858 441.833C198.957 445.5 195.627 452.175 195.627 459.884V481.555H203.858V441.833Z" fill="#FFFBF3"/>
<path d="M203.858 506.987H195.627V561.376H203.858V506.987Z" fill="#FFFBF3"/>
<path d="M203.858 481.508H195.627V506.987H203.858V481.508Z" fill="#A2A0EA"/>
<path d="M229.448 506.987H220.618V561.376H229.448V506.987Z" fill="#998055"/>
<path d="M229.41 481.508V459.837C229.41 451.846 225.819 444.888 220.581 441.363V481.508H229.41Z" fill="#998055"/>
<path d="M229.448 481.508H220.618V506.987H229.448V481.508Z" fill="#525177"/>
<path d="M173.367 412.171H163.827V469.803H173.367V412.171Z" fill="#FFEECB"/>
<path d="M173.367 412.171H163.827V419.034C166.147 418.235 170.112 416.825 173.367 415.744V412.171Z" fill="#998055"/>
<path d="M168.99 438.918H168.541C159.338 438.918 151.855 448.32 151.855 459.884V561.376H185.676V459.884C185.676 448.32 178.193 438.918 168.99 438.918Z" fill="#FFEECB"/>
<path d="M174.602 404.508H162.031C160.797 404.508 159.787 405.778 159.787 407.329V411.089C159.787 412.641 160.797 413.91 162.031 413.91H174.602C175.836 413.91 176.846 412.641 176.846 411.089V407.329C176.846 405.778 175.836 404.508 174.602 404.508Z" fill="#FFEECB"/>
<path d="M186.199 481.508H151.855V506.987H186.199V481.508Z" fill="#8681BD"/>
<path d="M160.086 441.833C155.185 445.5 151.855 452.175 151.855 459.884V481.555H160.086V441.833Z" fill="#FFFBF3"/>
<path d="M160.086 506.987H151.855V561.376H160.086V506.987Z" fill="#FFFBF3"/>
<path d="M160.086 481.508H151.855V506.987H160.086V481.508Z" fill="#A2A0EA"/>
<path d="M185.676 506.987H176.846V561.376H185.676V506.987Z" fill="#998055"/>
<path d="M185.676 481.508V459.837C185.676 451.846 182.084 444.888 176.846 441.363V481.508H185.676Z" fill="#998055"/>
<path d="M185.676 481.508H176.846V506.987H185.676V481.508Z" fill="#525177"/>
<path d="M154.661 776.252C168.525 776.252 179.765 773.832 179.765 770.846C179.765 767.861 168.525 765.44 154.661 765.44C140.797 765.44 129.558 767.861 129.558 770.846C129.558 773.832 140.797 776.252 154.661 776.252Z" fill="#4DA8BB"/>
<path d="M177.445 768.543C173.442 770.376 164.762 771.693 154.661 771.693C144.56 771.693 135.843 770.423 131.877 768.543C130.381 769.248 129.558 770 129.558 770.799C129.558 773.808 140.819 776.205 154.661 776.205C168.504 776.205 179.765 773.761 179.765 770.799C179.765 770 178.941 769.248 177.445 768.543Z" fill="#5BD8E8"/>
<path d="M149.386 564.761V764.97C149.386 768.167 151.481 770.799 154.025 770.799C156.569 770.799 158.664 768.167 158.664 764.97V564.761H149.386Z" fill="#4DA8BB"/>
<path d="M633.647 776.252C647.511 776.252 658.75 773.832 658.75 770.846C658.75 767.861 647.511 765.44 633.647 765.44C619.782 765.44 608.543 767.861 608.543 770.846C608.543 773.832 619.782 776.252 633.647 776.252Z" fill="#4DA8BB"/>
<path d="M656.43 768.543C652.427 770.376 643.748 771.693 633.647 771.693C623.545 771.693 614.828 770.423 610.863 768.543C609.366 769.248 608.543 770 608.543 770.799C608.543 773.808 619.804 776.205 633.647 776.205C647.526 776.205 658.75 773.761 658.75 770.799C658.75 770 657.927 769.248 656.43 768.543Z" fill="#5BD8E8"/>
<path d="M628.371 564.761V764.97C628.371 768.167 630.467 770.799 633.011 770.799C635.555 770.799 637.65 768.167 637.65 764.97V564.761H628.371Z" fill="#4DA8BB"/>
<path d="M743.226 776.251C757.09 776.251 768.33 773.831 768.33 770.845C768.33 767.86 757.09 765.439 743.226 765.439C729.362 765.439 718.123 767.86 718.123 770.845C718.123 773.831 729.362 776.251 743.226 776.251Z" fill="#4DA8BB"/>
<path d="M766.048 768.542C762.045 770.375 753.365 771.692 743.264 771.692C733.162 771.692 724.446 770.422 720.48 768.542C718.983 769.247 718.16 769.999 718.16 770.798C718.16 773.807 729.421 776.204 743.264 776.204C757.106 776.204 768.367 773.76 768.367 770.798C768.367 769.999 767.507 769.247 766.048 768.542Z" fill="#5BD8E8"/>
<path d="M737.951 474.363V765.017C737.951 768.213 740.046 770.846 742.59 770.846C745.134 770.846 747.229 768.213 747.229 765.017V474.363H737.951Z" fill="#4DA8BB"/>
<path d="M228.624 765.393C241.786 765.393 252.456 763.099 252.456 760.269C252.456 757.44 241.786 755.146 228.624 755.146C215.463 755.146 204.793 757.44 204.793 760.269C204.793 763.099 215.463 765.393 228.624 765.393Z" fill="#30757A"/>
<path d="M250.249 758.107C246.47 759.846 238.202 761.068 228.624 761.068C219.047 761.068 210.779 759.846 207 758.107C205.579 758.765 204.793 759.517 204.793 760.269C204.793 763.09 215.455 765.393 228.624 765.393C241.793 765.393 252.456 763.09 252.456 760.269C252.456 759.517 251.67 758.765 250.249 758.107Z" fill="#449C9E"/>
<path d="M223.611 564.761V754.722C223.611 757.778 225.594 760.269 228.026 760.269C230.458 760.269 232.441 757.778 232.441 754.722V564.761H223.611Z" fill="#30757A"/>
<path d="M365.291 765.393C378.452 765.393 389.122 763.099 389.122 760.269C389.122 757.44 378.452 755.146 365.291 755.146C352.129 755.146 341.459 757.44 341.459 760.269C341.459 763.099 352.129 765.393 365.291 765.393Z" fill="#30757A"/>
<path d="M386.915 758.107C383.136 759.846 374.868 761.068 365.291 761.068C355.713 761.068 347.445 759.846 343.667 758.107C342.245 758.765 341.459 759.517 341.459 760.269C341.459 763.09 352.122 765.393 365.291 765.393C378.46 765.393 389.122 763.09 389.122 760.269C389.122 759.517 388.336 758.765 386.915 758.107Z" fill="#449C9E"/>
<path d="M360.277 564.761V754.722C360.277 757.778 362.26 760.269 364.692 760.269C367.124 760.269 369.107 757.778 369.107 754.722V564.761H360.277Z" fill="#30757A"/>
<path d="M525.376 765.393C538.538 765.393 549.208 763.099 549.208 760.269C549.208 757.44 538.538 755.146 525.376 755.146C512.215 755.146 501.545 757.44 501.545 760.269C501.545 763.099 512.215 765.393 525.376 765.393Z" fill="#30757A"/>
<path d="M547.001 758.107C543.222 759.846 534.954 761.068 525.376 761.068C515.799 761.068 507.531 759.846 503.752 758.107C502.331 758.765 501.545 759.517 501.545 760.269C501.545 763.09 512.207 765.393 525.376 765.393C538.545 765.393 549.208 763.09 549.208 760.269C549.208 759.517 548.422 758.765 547.001 758.107Z" fill="#449C9E"/>
<path d="M520.363 564.761V754.722C520.363 757.778 522.346 760.269 524.778 760.269C527.21 760.269 529.192 757.778 529.192 754.722V564.761H520.363Z" fill="#30757A"/>
<path d="M689.69 765.393C702.852 765.393 713.521 763.099 713.521 760.269C713.521 757.44 702.852 755.146 689.69 755.146C676.528 755.146 665.858 757.44 665.858 760.269C665.858 763.099 676.528 765.393 689.69 765.393Z" fill="#30757A"/>
<path d="M711.314 758.107C707.535 759.846 699.267 761.068 689.69 761.068C680.112 761.068 671.844 759.846 668.066 758.107C666.644 758.765 665.858 759.517 665.858 760.269C665.858 763.09 676.521 765.393 689.69 765.393C702.859 765.393 713.521 763.09 713.521 760.269C713.521 759.517 712.736 758.765 711.314 758.107Z" fill="#449C9E"/>
<path d="M684.714 506.235V754.581C684.714 757.637 686.622 760.222 689.016 760.269C691.486 760.316 693.506 757.825 693.506 754.722V506.188H684.714V506.235Z" fill="#30757A"/>
<path d="M156.195 570.73C163.944 570.73 170.225 565.216 170.225 558.413C170.225 551.611 163.944 546.097 156.195 546.097C148.447 546.097 142.166 551.611 142.166 558.413C142.166 565.216 148.447 570.73 156.195 570.73Z" fill="#6E69B0"/>
<path d="M178.717 570.73C186.466 570.73 192.747 565.216 192.747 558.413C192.747 551.611 186.466 546.097 178.717 546.097C170.969 546.097 164.688 551.611 164.688 558.413C164.688 565.216 170.969 570.73 178.717 570.73Z" fill="#6E69B0"/>
<path d="M201.239 570.73C208.987 570.73 215.269 565.216 215.269 558.413C215.269 551.611 208.987 546.097 201.239 546.097C193.491 546.097 187.21 551.611 187.21 558.413C187.21 565.216 193.491 570.73 201.239 570.73Z" fill="#6E69B0"/>
<path d="M223.761 570.73C231.509 570.73 237.791 565.216 237.791 558.413C237.791 551.611 231.509 546.097 223.761 546.097C216.013 546.097 209.732 551.611 209.732 558.413C209.732 565.216 216.013 570.73 223.761 570.73Z" fill="#6E69B0"/>
<path d="M246.246 570.73C253.994 570.73 260.275 565.216 260.275 558.413C260.275 551.611 253.994 546.097 246.246 546.097C238.498 546.097 232.216 551.611 232.216 558.413C232.216 565.216 238.498 570.73 246.246 570.73Z" fill="#6E69B0"/>
<path d="M268.768 570.73C276.516 570.73 282.797 565.216 282.797 558.413C282.797 551.611 276.516 546.097 268.768 546.097C261.02 546.097 254.738 551.611 254.738 558.413C254.738 565.216 261.02 570.73 268.768 570.73Z" fill="#6E69B0"/>
<path d="M291.29 570.73C299.038 570.73 305.319 565.216 305.319 558.413C305.319 551.611 299.038 546.097 291.29 546.097C283.542 546.097 277.26 551.611 277.26 558.413C277.26 565.216 283.542 570.73 291.29 570.73Z" fill="#6E69B0"/>
<path d="M313.775 570.73C321.523 570.73 327.804 565.216 327.804 558.413C327.804 551.611 321.523 546.097 313.775 546.097C306.026 546.097 299.745 551.611 299.745 558.413C299.745 565.216 306.026 570.73 313.775 570.73Z" fill="#6E69B0"/>
<path d="M336.297 570.73C344.045 570.73 350.326 565.216 350.326 558.413C350.326 551.611 344.045 546.097 336.297 546.097C328.548 546.097 322.267 551.611 322.267 558.413C322.267 565.216 328.548 570.73 336.297 570.73Z" fill="#6E69B0"/>
<path d="M358.818 570.73C366.567 570.73 372.848 565.216 372.848 558.413C372.848 551.611 366.567 546.097 358.818 546.097C351.07 546.097 344.789 551.611 344.789 558.413C344.789 565.216 351.07 570.73 358.818 570.73Z" fill="#6E69B0"/>
<path d="M381.34 570.73C389.089 570.73 395.37 565.216 395.37 558.413C395.37 551.611 389.089 546.097 381.34 546.097C373.592 546.097 367.311 551.611 367.311 558.413C367.311 565.216 373.592 570.73 381.34 570.73Z" fill="#6E69B0"/>
<path d="M403.825 570.73C411.573 570.73 417.855 565.216 417.855 558.413C417.855 551.611 411.573 546.097 403.825 546.097C396.077 546.097 389.796 551.611 389.796 558.413C389.796 565.216 396.077 570.73 403.825 570.73Z" fill="#6E69B0"/>
<path d="M426.347 570.73C434.095 570.73 440.377 565.216 440.377 558.413C440.377 551.611 434.095 546.097 426.347 546.097C418.599 546.097 412.318 551.611 412.318 558.413C412.318 565.216 418.599 570.73 426.347 570.73Z" fill="#6E69B0"/>
<path d="M448.869 570.73C456.617 570.73 462.899 565.216 462.899 558.413C462.899 551.611 456.617 546.097 448.869 546.097C441.121 546.097 434.84 551.611 434.84 558.413C434.84 565.216 441.121 570.73 448.869 570.73Z" fill="#6E69B0"/>
<path d="M471.354 570.73C479.102 570.73 485.383 565.216 485.383 558.413C485.383 551.611 479.102 546.097 471.354 546.097C463.606 546.097 457.324 551.611 457.324 558.413C457.324 565.216 463.606 570.73 471.354 570.73Z" fill="#6E69B0"/>
<path d="M493.876 570.73C501.624 570.73 507.905 565.216 507.905 558.413C507.905 551.611 501.624 546.097 493.876 546.097C486.128 546.097 479.846 551.611 479.846 558.413C479.846 565.216 486.128 570.73 493.876 570.73Z" fill="#6E69B0"/>
<path d="M516.398 570.73C524.146 570.73 530.427 565.216 530.427 558.413C530.427 551.611 524.146 546.097 516.398 546.097C508.65 546.097 502.368 551.611 502.368 558.413C502.368 565.216 508.65 570.73 516.398 570.73Z" fill="#6E69B0"/>
<path d="M538.92 570.73C546.668 570.73 552.949 565.216 552.949 558.413C552.949 551.611 546.668 546.097 538.92 546.097C531.171 546.097 524.89 551.611 524.89 558.413C524.89 565.216 531.171 570.73 538.92 570.73Z" fill="#6E69B0"/>
<path d="M561.404 570.73C569.153 570.73 575.434 565.216 575.434 558.413C575.434 551.611 569.153 546.097 561.404 546.097C553.656 546.097 547.375 551.611 547.375 558.413C547.375 565.216 553.656 570.73 561.404 570.73Z" fill="#6E69B0"/>
<path d="M583.926 570.73C591.675 570.73 597.956 565.216 597.956 558.413C597.956 551.611 591.675 546.097 583.926 546.097C576.178 546.097 569.897 551.611 569.897 558.413C569.897 565.216 576.178 570.73 583.926 570.73Z" fill="#6E69B0"/>
<path d="M606.448 570.73C614.197 570.73 620.478 565.216 620.478 558.413C620.478 551.611 614.197 546.097 606.448 546.097C598.7 546.097 592.419 551.611 592.419 558.413C592.419 565.216 598.7 570.73 606.448 570.73Z" fill="#6E69B0"/>
<path d="M628.933 570.73C636.681 570.73 642.962 565.216 642.962 558.413C642.962 551.611 636.681 546.097 628.933 546.097C621.185 546.097 614.903 551.611 614.903 558.413C614.903 565.216 621.185 570.73 628.933 570.73Z" fill="#6E69B0"/>
<path d="M627.698 553.666H139.135C134.309 553.666 130.418 558.555 130.418 564.619C130.418 570.683 134.309 575.572 139.135 575.572H627.698C632.524 575.572 636.415 570.683 636.415 564.619C636.415 558.555 632.487 553.666 627.698 553.666Z" fill="#2D3E51"/>
<path d="M655.008 555.852C661.807 551.184 665.215 542.561 662.619 536.592C660.023 530.623 652.407 529.569 645.608 534.237C638.809 538.906 635.402 547.529 637.997 553.497C640.593 559.466 648.209 560.521 655.008 555.852Z" fill="#6E69B0"/>
<path d="M673.71 540.105C680.51 535.437 683.917 526.814 681.321 520.845C678.726 514.876 671.109 513.822 664.31 518.49C657.511 523.158 654.104 531.782 656.7 537.75C659.295 543.719 666.911 544.773 673.71 540.105Z" fill="#6E69B0"/>
<path d="M692.412 524.357C699.212 519.689 702.619 511.066 700.023 505.097C697.428 499.128 689.812 498.074 683.012 502.742C676.213 507.41 672.806 516.034 675.402 522.002C677.997 527.971 685.613 529.025 692.412 524.357Z" fill="#6E69B0"/>
<path d="M711.115 508.61C717.914 503.941 721.322 495.318 718.726 489.349C716.13 483.381 708.514 482.326 701.715 486.995C694.916 491.663 691.508 500.286 694.104 506.255C696.7 512.224 704.316 513.278 711.115 508.61Z" fill="#6E69B0"/>
<path d="M729.817 492.861C736.616 488.193 740.024 479.57 737.428 473.601C734.832 467.632 727.216 466.578 720.417 471.246C713.618 475.915 710.21 484.538 712.806 490.507C715.402 496.476 723.018 497.53 729.817 492.861Z" fill="#6E69B0"/>
<path d="M748.538 477.155C755.337 472.487 758.744 463.864 756.148 457.895C753.553 451.926 745.937 450.872 739.138 455.54C732.338 460.209 728.931 468.832 731.527 474.801C734.122 480.769 741.738 481.824 748.538 477.155Z" fill="#6E69B0"/>
<path d="M767.207 461.43C774.006 456.762 777.413 448.138 774.818 442.17C772.222 436.201 764.606 435.147 757.807 439.815C751.008 444.483 747.6 453.106 750.196 459.075C752.792 465.044 760.408 466.098 767.207 461.43Z" fill="#6E69B0"/>
<path d="M785.91 445.682C792.709 441.014 796.116 432.39 793.52 426.422C790.925 420.453 783.309 419.398 776.509 424.067C769.71 428.735 766.303 437.358 768.899 443.327C771.494 449.296 779.11 450.35 785.91 445.682Z" fill="#6E69B0"/>
<path d="M810.643 421.76C807.8 416.354 802.038 414.897 797.773 418.423L630.167 557.333C625.865 560.906 624.705 568.145 627.511 573.504C630.355 578.91 636.116 580.367 640.381 576.842L807.987 437.931C812.289 434.406 813.449 427.166 810.643 421.76Z" fill="#2D3E51"/>
<path d="M634.993 571.717C638.051 571.717 640.53 568.602 640.53 564.76C640.53 560.918 638.051 557.803 634.993 557.803C631.935 557.803 629.456 560.918 629.456 564.76C629.456 568.602 631.935 571.717 634.993 571.717Z" fill="#6E69B0"/>
<path d="M219.533 287.222L252.83 436.239L295.068 419.034L298.061 435.769L239.175 477.137L187.135 338.226C187.135 338.226 191.998 289.008 219.533 287.222Z" fill="#BF9330"/>
<path d="M331.694 415.931C331.545 415.085 331.433 414.145 331.732 413.393C332.143 412.406 333.079 411.936 333.977 411.983C336.446 412.077 338.129 415.179 339.177 418C340.224 420.82 341.347 424.064 343.704 425.098C344.115 425.286 344.527 425.38 344.938 425.239C345.649 424.957 346.023 423.97 346.248 423.077C346.809 420.82 347.071 418.423 346.996 416.025C346.959 414.568 346.772 413.111 346.996 411.701C347.258 410.29 348.081 408.88 349.203 408.739C350.475 408.551 351.598 409.914 351.934 411.466C352.308 412.97 352.084 414.615 351.86 416.166C351.373 419.786 350.999 423.547 351.485 427.166C352.047 431.256 353.693 435.017 354.029 439.107C354.366 443.196 352.72 448.179 349.465 448.696C348.305 448.884 347.071 448.461 345.948 448.884C345.425 449.072 344.938 449.401 344.415 449.354C343.517 449.26 342.993 448.132 342.694 447.051C341.272 441.692 342.619 435.346 340.599 430.128C338.429 424.346 332.966 422.56 331.694 415.931Z" fill="#EC5946"/>
<path d="M122 759.423C117.885 757.026 110.216 755.146 110.216 755.146L106.961 773.432C106.437 776.252 108.121 778.979 110.44 779.12L144.747 780.765C135.394 761.304 122 759.423 122 759.423Z" fill="#2D3E51"/>
<path d="M217.363 769.295C213.248 766.897 205.579 765.017 205.579 765.017L202.324 783.303C201.8 786.124 203.484 788.85 205.803 788.991L240.11 790.637C230.757 771.222 217.363 769.295 217.363 769.295Z" fill="#2D3E51"/>
<path d="M263.754 299.915L297.051 448.932L343.853 428.201L346.846 444.936L283.396 489.829L231.356 350.919C231.356 350.919 236.219 301.654 263.754 299.915Z" fill="#FEC83D"/>
<path d="M298.51 456.124C299.558 457.676 301.541 457.111 303.074 456.406C317.179 449.966 331.021 442.445 344.415 433.936C344.564 433.842 344.714 433.748 344.864 433.654L343.891 428.201L297.388 448.791C297.537 450.295 297.65 451.799 297.799 453.304C297.874 454.291 297.986 455.325 298.51 456.124Z" fill="#BF9330"/>
<path d="M175.163 290.325C175.163 290.325 129.82 381.662 119.456 453.586C109.093 525.509 126.004 670.624 126.004 670.624C126.004 670.624 113.77 689.662 109.692 717.303C106.923 735.872 107.485 750.821 108.158 758.624C108.457 762.056 110.627 764.735 113.358 765.017L121.327 765.863C124.021 766.145 126.527 764.03 127.313 760.739L172.843 567.346H181.336L200.64 681.671C200.64 681.671 194.43 711.474 203.259 769.389C203.895 773.526 206.739 776.487 210.068 776.487H218.112C221.89 776.487 224.958 772.68 225.033 767.932L230.084 444.654L263.754 299.868C262.931 302.453 203.484 253.987 175.163 290.325Z" fill="#FEC83D"/>
<path d="M174.34 318.107C176.023 322.573 180.288 324.265 184.142 325.252C194.019 327.837 204.12 328.919 214.146 328.449C216.99 328.308 219.908 328.072 222.377 326.286C226.006 323.701 227.802 318.483 229.41 313.688C232.441 304.521 235.583 295.449 238.838 286.423C238.763 286.376 238.688 286.329 238.576 286.282C236.032 289.196 234.274 293.286 232.927 297.376C231.169 302.688 229.897 308.329 227.278 313.03C222.826 320.974 214.969 325.111 207.262 325.581C199.556 326.051 191.923 323.278 184.778 319.658C181.822 318.154 178.605 316.085 177.744 312.278C177.108 309.551 177.857 306.684 178.605 304.004C180.7 296.53 182.758 289.055 184.853 281.581C184.067 282.051 183.319 282.521 182.57 283.085C179.765 290.466 177.258 298.034 175.088 305.743C173.966 309.739 172.918 314.252 174.34 318.107Z" fill="#BF9330"/>
<path d="M251.109 303.158C252.119 300.431 253.242 297.423 253.728 294.461C249.65 292.064 244.562 289.149 238.875 286.423C243.028 290.842 247.181 288.115 246.059 295.119C245.086 301.09 233.862 330 232.328 335.312C223.162 367.325 230.383 407.094 237.641 412.218L246.358 374.799C241.307 351.154 242.841 325.299 251.109 303.158Z" fill="#BF9330"/>
<path d="M232.328 335.312C233.862 330 245.086 301.043 246.059 295.12C247.181 288.116 243.066 290.842 238.875 286.423C235.621 295.449 232.478 304.569 229.448 313.688C227.839 318.53 226.043 323.701 222.414 326.287C219.945 328.026 217.027 328.308 214.184 328.449C204.12 328.872 194.018 327.791 184.179 325.252C180.326 324.265 176.061 322.573 174.377 318.107C172.918 314.252 173.966 309.74 175.125 305.744C177.37 297.893 179.914 290.184 182.795 282.663C180.962 284.026 179.203 285.624 177.52 287.504C172.656 296.248 168.129 305.368 165.847 314.158C161.582 330.47 157.242 347.064 149.723 361.402C146.842 366.855 143.4 372.026 139.509 376.445C130.867 401.406 123.085 428.624 119.494 453.539C109.131 525.462 126.041 670.577 126.041 670.577C126.041 670.577 113.807 689.616 109.729 717.257C106.961 735.825 107.522 750.774 108.195 758.577C108.495 762.009 110.665 764.688 113.396 764.97L121.364 765.816C124.058 766.098 126.565 763.983 127.35 760.692L172.843 567.346H181.336L200.64 681.671C200.64 681.671 194.43 711.474 203.259 769.389C203.895 773.526 206.739 776.487 210.068 776.487H218.112C221.89 776.487 224.958 772.68 225.033 767.932L230.084 444.654L237.641 412.171C230.383 407.094 223.162 367.325 232.328 335.312Z" fill="#A4D38F"/>
<path d="M179.241 453.821C202.548 438.355 217.588 406.201 219.459 373.154C220.319 358.111 218.71 342.975 218.673 327.932C217.214 328.261 215.68 328.402 214.184 328.449C206.252 328.778 198.283 328.167 190.427 326.663C188.669 333.385 188.07 340.577 187.135 347.581C185.002 363.705 180.887 379.406 175.013 393.932C172.095 401.171 168.578 408.363 163.303 413.111C158.14 417.765 151.78 419.645 145.495 420.962C138.836 422.372 132.102 423.218 125.368 423.5C122.861 433.701 120.841 443.761 119.419 453.539C119.344 454.103 119.269 454.667 119.195 455.231C137.676 466.513 160.872 465.996 179.241 453.821Z" fill="#7BA863"/>
<path d="M166.483 563.633C162.106 560.859 156.644 557.146 152.828 560.953C150.359 563.445 150.022 567.957 149.835 571.953C148.301 604.53 142.465 636.496 135.618 668.039C135.506 667.945 135.394 667.898 135.282 667.804C134.608 667.334 133.935 666.769 133.261 666.252C132.962 666.017 130.493 664.09 131.578 663.573C132.064 663.338 132.139 662.445 131.578 662.21C129.071 661.316 129.184 665.406 130.269 667.052C131.503 668.932 133.074 670.483 134.833 671.658C132.925 680.355 130.942 689.051 128.997 697.701C123.908 720.124 118.82 742.547 113.695 764.97L121.327 765.769C124.021 766.052 126.527 763.936 127.313 760.646L172.843 567.346H174.078C171.459 566.406 168.915 565.184 166.483 563.633Z" fill="#7BA863"/>
<path d="M223.162 672.129C220.992 670.812 218.748 671.188 216.391 671C214.445 670.859 212.537 670.577 210.629 670.577C209.993 667.005 209.283 663.385 208.609 659.812C202.997 629.116 201.538 597.479 200.117 566.03C194.243 568.804 187.845 569.791 181.598 569.039L200.603 681.624C200.603 681.624 194.393 711.428 203.222 769.342C203.858 773.479 206.701 776.441 210.031 776.441H212.051C211.265 753.876 211.34 731.218 212.275 708.654C212.612 700.146 213.099 691.543 212.388 683.082C212.126 679.932 211.677 676.782 211.153 673.633C212.687 674.338 214.296 674.761 215.942 675.043C218.411 675.466 220.88 676.124 223.162 674.62C223.911 674.197 223.948 672.599 223.162 672.129Z" fill="#7BA863"/>
<path d="M140.632 431.727C135.207 430.693 129.67 430.881 124.245 430.881C123.385 430.881 123.422 432.432 124.245 432.526C129.595 433.184 135.057 433.983 140.445 433.607C141.23 433.607 141.53 431.915 140.632 431.727Z" fill="#7BA863"/>
<path d="M159.674 435.299C156.42 432.714 152.304 432.996 148.675 433.983C147.927 434.171 148.077 435.675 148.862 435.675C152.416 435.628 155.746 436.898 159.263 437.321C160.123 437.462 160.348 435.816 159.674 435.299Z" fill="#7BA863"/>
<path d="M185.975 440.094C182.945 439.436 179.914 438.543 177.033 437.133C175.275 436.286 174.489 439.859 176.248 440.705C179.353 442.162 182.421 442.915 185.713 442.539C186.723 442.445 187.135 440.329 185.975 440.094Z" fill="#7BA863"/>
<path d="M206.701 443.244C204.419 442.115 202.361 441.645 199.93 441.269C199.256 441.175 198.957 442.538 199.593 442.868C201.838 444.09 203.82 444.983 206.215 445.406C207.375 445.641 207.786 443.761 206.701 443.244Z" fill="#7BA863"/>
<path d="M224.397 449.026C222.788 447.616 221.18 446.487 219.421 445.312C217.813 444.278 216.353 447.381 218 448.368C219.87 449.496 221.666 450.53 223.611 451.329C224.771 451.799 225.295 449.825 224.397 449.026Z" fill="#7BA863"/>
<path d="M226.455 394.12C226.417 393.32 225.407 393.085 225.295 393.931C224.846 397.269 223.798 400.372 223.312 403.662C223.2 404.273 223.873 404.978 224.285 404.367C226.193 401.5 226.567 397.786 226.455 394.12Z" fill="#7BA863"/>
<path d="M222.003 411.795C221.516 414.568 220.768 417.295 220.843 420.162C220.88 421.055 221.778 421.15 222.04 420.35C222.863 417.718 222.901 414.803 223.162 411.983C223.275 411.184 222.152 410.996 222.003 411.795Z" fill="#7BA863"/>
<path d="M219.908 430.504C219.646 429.517 218.374 429.94 218.636 430.927C218.972 432.103 218.86 433.372 218.299 434.453C218 435.111 218.748 435.863 219.159 435.252C220.057 433.936 220.319 432.244 219.908 430.504Z" fill="#7BA863"/>
<path d="M226.268 549.53C225.968 548.261 225.07 547.838 224.21 547.368C223.088 546.756 222.077 546.004 221.18 545.017C217.588 541.162 216.017 535.38 215.493 529.645C214.857 522.641 215.194 515.402 215.343 508.397C215.493 500.453 215.83 492.509 216.241 484.611C216.69 476.291 217.064 467.688 218.299 459.462C218.448 458.474 217.251 458.051 217.102 459.038C216.017 466.278 214.707 473.329 213.884 480.615C213.099 487.62 212.537 494.671 212.163 501.722C211.789 508.821 211.452 515.919 211.415 523.064C211.378 529.41 211.901 536.085 214.296 541.82C216.166 546.286 219.271 550.47 223.2 552.021C224.547 552.538 226.866 551.88 226.268 549.53Z" fill="#7BA863"/>
<path d="M163.191 437.837C162.742 439.718 161.956 441.504 161.433 443.337C160.909 445.218 160.497 447.098 160.086 448.978C159.337 452.504 158.664 456.077 158.103 459.649C156.906 466.983 156.008 474.457 155.447 481.884C154.885 489.453 154.698 497.068 154.811 504.684C154.923 511.97 154.773 520.008 156.906 526.919C157.355 528.329 158.776 528.047 158.926 526.59C159.674 519.397 158.627 511.923 158.477 504.684C158.327 497.209 158.514 489.782 158.963 482.308C159.412 474.88 160.086 467.547 161.096 460.214C161.582 456.594 162.143 453.021 162.779 449.402C163.079 447.615 163.415 445.829 163.677 444.043C163.977 442.115 164.051 440.047 164.463 438.167C164.65 437.273 163.453 436.85 163.191 437.837Z" fill="#7BA863"/>
<path d="M240.147 294.743C239.848 297.329 239.1 299.773 238.352 302.171C238.165 302.782 238.913 303.346 239.25 302.829C240.746 300.526 241.27 297.846 241.307 294.932C241.307 294.132 240.26 293.897 240.147 294.743Z" fill="#7BA863"/>
<path d="M230.42 321.774C230.196 324.265 229.56 326.569 228.699 328.825C228.437 329.53 229.186 330.094 229.522 329.436C230.682 327.133 231.281 324.5 231.468 321.774C231.543 320.928 230.495 320.928 230.42 321.774Z" fill="#7BA863"/>
<path d="M223.948 345.137C223.611 346.782 223.275 348.427 223.013 350.12C222.901 350.872 223.761 351.201 223.948 350.449C224.36 348.803 224.696 347.158 225.033 345.513C225.22 344.62 224.098 344.244 223.948 345.137Z" fill="#7BA863"/>
<path d="M224.322 376.115C223.312 372.731 222.863 369.299 223.237 365.679C223.349 364.692 222.077 364.692 222.003 365.679C221.628 369.487 222.04 373.154 223.387 376.585C223.611 377.243 224.509 376.82 224.322 376.115Z" fill="#7BA863"/>
<path d="M149.124 373.53C148.039 376.585 146.019 379.171 143.475 380.299C142.689 380.628 143.026 382.179 143.812 381.85C146.767 380.487 149.012 377.761 149.872 373.906C150.022 373.389 149.311 372.966 149.124 373.53Z" fill="#7BA863"/>
<path d="M160.198 353.081C159.3 354.351 158.664 355.714 158.103 357.218C157.729 358.205 158.739 358.91 159.225 358.064C160.011 356.701 160.684 355.338 161.133 353.786C161.32 353.081 160.535 352.564 160.198 353.081Z" fill="#7BA863"/>
<path d="M167.493 331.551C167.456 330.705 166.558 330.752 166.483 331.551C166.221 333.996 165.249 336.534 163.902 338.32C163.341 339.073 164.201 340.06 164.8 339.449C166.67 337.333 167.606 334.701 167.493 331.551Z" fill="#7BA863"/>
<path d="M171.983 308.188C170.748 311.102 169.925 314.205 169.027 317.308C168.541 319.047 170.748 319.799 171.235 318.06C172.095 315.051 172.956 312.09 173.479 308.987C173.666 307.906 172.432 307.107 171.983 308.188Z" fill="#7BA863"/>
<path d="M300.194 419.034C299.595 419.974 299.408 421.244 299.333 422.466C298.959 426.415 299.109 430.457 299.782 434.359C299.894 435.111 300.044 435.91 300.418 436.521C301.129 437.744 302.513 438.026 303.673 437.65C304.833 437.274 305.805 436.239 306.666 435.205C308.462 433.137 310.07 430.692 310.931 427.825C311.791 424.957 311.717 421.526 310.37 419.034C308.237 415.039 302.513 415.274 300.194 419.034Z" fill="#EC5946"/>
<path d="M250.286 269.218C249.388 272.227 248.378 275.235 246.582 277.539C244.787 279.842 242.093 281.205 239.661 280.312C237.154 279.372 234.835 276.175 232.403 277.351C230.046 278.479 229.897 282.522 228.625 285.248C227.278 288.022 224.547 289.385 221.965 289.432C219.384 289.479 216.84 288.445 214.371 287.41C213.323 286.987 212.201 286.47 211.602 285.295C210.891 283.932 211.153 282.193 211.415 280.641C213.061 271.193 215.456 261.885 218.561 253C220.544 247.312 222.938 241.53 227.053 238.051C231.842 233.962 238.015 233.774 243.814 233.68C245.161 233.68 246.582 233.68 247.817 234.385C255.561 238.757 252.456 261.885 250.286 269.218Z" fill="#EC5946"/>
<path d="M240.634 260.427C236.893 266.303 231.505 270.534 225.632 272.038C223.649 272.556 221.554 272.791 219.608 272.085C215.643 270.722 212.986 266.021 211.602 261.179C207.973 248.534 211.602 233.162 220.132 225.03C228.662 216.897 241.382 216.615 250.136 224.372C251.633 225.688 253.017 227.239 254.065 229.167C256.197 233.068 259.115 244.915 255.935 249.004C253.578 252.013 250.885 250.038 248.116 249.239C245.086 248.346 241.794 246.184 238.763 248.393C232.478 252.859 239.175 262.731 240.634 260.427Z" fill="#2D3E51"/>
<path d="M230.345 279.936C230.981 279.936 231.655 279.983 232.141 280.453C232.665 280.97 232.852 281.863 232.927 282.709C233.451 289.056 229.335 295.12 224.36 296.624C219.421 298.128 214.071 295.825 210.106 291.782C206.177 287.786 201.838 279.325 208.497 276.363C214.483 273.778 224.023 279.842 230.345 279.936Z" fill="#FEC83D"/>
<path d="M186.985 211.397C171.384 217.273 159.786 234.432 153.464 253.329C147.141 272.226 145.345 292.863 143.437 313.218C141.642 332.35 139.696 351.483 135.955 370.145C133.935 380.158 131.316 390.171 126.527 398.538C119.943 410.056 109.318 417.812 98.0567 419.222C118.521 431.162 143.063 431.397 163.677 419.833C170.299 416.12 176.584 411.231 181.86 404.932C196.937 387.068 202.698 359.897 203.858 333.902C205.018 307.906 202.212 281.816 203.334 255.82C203.521 251.778 203.858 247.5 205.691 244.162C207.524 240.825 211.378 238.85 214.109 241.013C215.119 241.812 215.867 243.034 216.802 243.974C221.217 248.299 227.203 242.094 227.914 236.312C228.737 229.825 223.686 223.291 220.02 219.436C211.116 210.034 198.021 207.214 186.985 211.397Z" fill="#2D3E51"/>
<path d="M188.407 240.825C177.744 259.722 183.58 285.718 180.775 308.611C182.944 304.051 185.077 299.538 187.247 294.978C190.352 328.872 185.788 365.35 168.728 391.91C152.454 417.436 123.085 430.88 99.0668 419.034C98.7301 419.081 98.3934 419.128 98.0567 419.175C118.521 431.115 143.063 431.35 163.677 419.786C170.299 416.072 176.584 411.184 181.86 404.884C196.937 387.021 202.698 359.85 203.858 333.854C205.018 307.859 202.212 281.769 203.334 255.773C203.521 251.731 203.858 247.453 205.691 244.115C207.524 240.778 211.378 238.803 214.109 240.966C215.119 241.765 215.867 242.987 216.802 243.927C221.217 248.252 227.203 242.047 227.914 236.265C228.138 234.666 227.951 233.021 227.577 231.47C224.098 228.602 220.169 226.628 216.091 225.923C205.616 223.996 194.505 229.966 188.407 240.825Z" fill="#39546B"/>
<path d="M504.575 424.957C503.041 425.944 502.031 428.53 502.892 430.41C503.341 431.397 504.276 432.385 503.865 433.419C503.64 433.983 503.079 434.265 502.854 434.829C502.293 436.333 504.351 437.274 504.762 438.825C504.987 439.812 504.538 440.752 504.239 441.692C503.939 442.633 503.864 443.949 504.575 444.419C504.8 444.56 505.062 444.607 505.286 444.748C505.96 445.265 505.66 446.581 505.81 447.615C506.109 449.543 508.279 450.013 509.626 449.12C511.01 448.18 511.833 446.44 512.956 445.03C514.639 442.915 516.959 441.645 519.353 441.598C524.553 441.457 520.026 432.573 517.931 429.611C515.275 425.944 508.354 422.513 504.575 424.957Z" fill="#EF7C2E"/>
<path d="M623.695 283.696L619.093 284.213L595.711 419.739L515.238 428.06L520.588 440.987L604.952 451.047L649.659 329.906C658.077 307.06 643.636 281.346 623.695 283.696Z" fill="#FEC83D"/>
<path d="M596.871 427.026C610.563 383.778 614.08 336.44 626.538 292.628C627.361 289.667 628.446 286.564 629.868 283.885C627.885 283.555 625.827 283.461 623.732 283.696L619.131 284.214L595.748 419.739L591.708 420.162C592.83 422.983 594.663 425.427 596.871 427.026Z" fill="#FFEBC0"/>
<path d="M596.197 416.825L595.711 419.739L590.398 420.303C593.429 427.825 597.357 434.735 601.996 440.799C600.462 432.667 598.517 424.628 596.197 416.825Z" fill="#BF9330"/>
<path d="M555.942 266.867C555.568 269.312 556.989 271.568 558.486 273.167C561.516 276.41 565.258 278.526 568.999 280.359C573.451 282.521 578.165 284.308 582.916 283.649C587.667 282.944 592.381 279.231 593.653 273.449C591.708 275.188 589.538 276.739 587.144 276.786C584.749 276.833 582.205 274.906 581.868 271.944C581.644 270.017 582.355 268.184 583.028 266.444C584.674 262.261 591.633 266.162 593.279 270.346C594.327 272.931 596.459 273.637 597.656 276.081C600.2 272.179 601.023 266.82 600.5 261.837C599.976 256.855 598.217 252.154 596.085 247.923C593.728 243.269 590.772 238.897 586.844 236.453C583.589 234.432 579.848 233.867 576.219 234.149C569.335 234.667 562.414 238.286 558.187 245.102C553.959 251.872 552.313 259.534 555.942 266.867Z" fill="#2D3E51"/>
<path d="M461.477 435.064C461.29 436.709 461.327 438.543 462 439.953C463.048 442.115 465.33 442.774 467.35 442.915C468.697 443.056 470.081 443.009 471.316 442.397C475.88 440.047 478.162 427.167 472.962 424.44C467.425 421.62 462.15 428.953 461.477 435.064Z" fill="#EF7C2E"/>
</svg>
